<svg xmlns="http://www.w3.org/2000/svg" xmlns:xlink="http://www.w3.org/1999/xlink" width="44" zoomAndPan="magnify" viewBox="0 0 375 374.999991" height="45" preserveAspectRatio="xMidYMid meet" version="1.0"><defs><g/></defs><rect x="-37.5" width="450" fill="#ffffff" y="-37.499999" height="449.999989" fill-opacity="1"/><rect x="-37.5" width="450" fill="#e1e1e1" y="-37.499999" height="449.999989" fill-opacity="1"/><g fill="#000000" fill-opacity="1"><g transform="translate(160.071451, 281.452995)"><g><path d="M -8.890625 -168.171875 C -7.847656 -168.171875 -5.992188 -168.171875 -3.328125 -168.171875 C -0.660156 -168.171875 2.960938 -167.722656 7.546875 -166.828125 C 12.140625 -165.941406 16.398438 -164.644531 20.328125 -162.9375 C 24.253906 -161.238281 28.101562 -158.796875 31.875 -155.609375 C 35.65625 -152.429688 38.878906 -149.472656 41.546875 -146.734375 C 44.210938 -143.992188 46.914062 -140.398438 49.65625 -135.953125 C 52.394531 -131.515625 54.613281 -127.738281 56.3125 -124.625 C 58.019531 -121.519531 59.910156 -117.445312 61.984375 -112.40625 C 64.648438 -106.039062 66.796875 -100.523438 68.421875 -95.859375 C 70.054688 -91.191406 70.945312 -88.632812 71.09375 -88.1875 C 71.238281 -87.75 71.457031 -87.234375 71.75 -86.640625 C 72.195312 -85.453125 72.570312 -84.414062 72.875 -83.53125 C 73.3125 -84.5625 74.34375 -87.300781 75.96875 -91.75 C 77.601562 -96.195312 79.125 -100.195312 80.53125 -103.75 C 81.9375 -107.300781 84.117188 -112.332031 87.078125 -118.84375 C 90.046875 -125.363281 92.75 -130.507812 95.1875 -134.28125 C 97.632812 -138.0625 100.78125 -142.394531 104.625 -147.28125 C 108.476562 -152.175781 112.332031 -155.957031 116.1875 -158.625 C 125.664062 -164.988281 135.738281 -168.171875 146.40625 -168.171875 L 146.40625 -165.953125 C 138.101562 -165.953125 129.617188 -161.582031 120.953125 -152.84375 C 112.296875 -144.101562 104.894531 -133.550781 98.75 -121.1875 C 92.601562 -108.820312 87.566406 -96.007812 83.640625 -82.75 C 79.710938 -69.5 77.75 -58.207031 77.75 -48.875 L 77.75 -16.21875 C 77.75 -10.882812 80.046875 -6.882812 84.640625 -4.21875 C 86.859375 -2.882812 89.300781 -2.21875 91.96875 -2.21875 L 94.640625 -2.21875 L 94.640625 0 L 46.203125 0 L 46.203125 -2.21875 L 49.09375 -2.21875 C 52.800781 -2.21875 56.0625 -3.550781 58.875 -6.21875 C 61.6875 -8.882812 63.164062 -12.144531 63.3125 -16 L 63.3125 -49.09375 C 63.3125 -59.019531 61.238281 -70.644531 57.09375 -83.96875 C 52.945312 -97.300781 47.613281 -110.078125 41.09375 -122.296875 C 34.582031 -134.515625 26.804688 -144.84375 17.765625 -153.28125 C 8.734375 -161.726562 -0.148438 -165.953125 -8.890625 -165.953125 Z M -8.890625 -168.171875 "/></g></g></g><g fill="#000000" fill-opacity="1"><g transform="translate(83.003659, 237.732648)"><g><path d="M 16.21875 -2.21875 C 20.070312 -2.21875 23.367188 -3.585938 26.109375 -6.328125 C 28.847656 -9.066406 30.289062 -12.363281 30.4375 -16.21875 L 30.4375 -140.625 C 30.4375 -144.175781 29.03125 -147.171875 26.21875 -149.609375 C 23.40625 -152.054688 20.070312 -153.28125 16.21875 -153.28125 L 13.546875 -153.28125 L 13.328125 -155.515625 L 58.421875 -155.515625 C 63.015625 -155.515625 68.015625 -155.957031 73.421875 -156.84375 C 78.828125 -157.726562 82.640625 -158.617188 84.859375 -159.515625 L 84.859375 -131.515625 L 82.640625 -131.515625 L 82.640625 -135.515625 C 82.640625 -139.066406 81.414062 -142.101562 78.96875 -144.625 C 76.53125 -147.144531 73.609375 -148.476562 70.203125 -148.625 L 44.875 -148.625 L 44.875 -79.96875 L 87.078125 -79.96875 C 90.046875 -80.125 92.566406 -81.238281 94.640625 -83.3125 C 96.710938 -85.382812 97.75 -87.972656 97.75 -91.078125 L 97.75 -94.1875 L 99.96875 -94.1875 L 99.96875 -59.09375 L 97.75 -59.09375 L 97.75 -62.421875 C 97.75 -65.390625 96.75 -67.910156 94.75 -69.984375 C 92.75 -72.054688 90.269531 -73.164062 87.3125 -73.3125 L 44.875 -73.3125 L 44.875 -6.890625 L 92.1875 -6.890625 C 103.15625 -6.890625 111.523438 -9.332031 117.296875 -14.21875 C 123.078125 -19.101562 127.890625 -26.359375 131.734375 -35.984375 L 133.953125 -35.984375 L 121.078125 0 L 13.328125 0 L 13.328125 -2.21875 Z M 16.21875 -2.21875 "/></g></g></g><path fill="#e1e1e1" d="M 63.410156 170.273438 L 311.5625 170.273438 C 313.046875 170.273438 314.472656 170.863281 315.523438 171.910156 C 316.570312 172.960938 317.160156 174.386719 317.160156 175.871094 L 317.160156 187.066406 C 317.160156 188.550781 316.570312 189.976562 315.523438 191.027344 C 314.472656 192.078125 313.046875 192.667969 311.5625 192.667969 L 63.410156 192.667969 C 60.316406 192.667969 57.8125 190.160156 57.8125 187.066406 L 57.8125 175.871094 C 57.8125 172.777344 60.316406 170.273438 63.410156 170.273438 Z M 63.410156 170.273438 " fill-opacity="1" fill-rule="nonzero"/><g fill="#000000" fill-opacity="1"><g transform="translate(68.748528, 185.666156)"><g><path d="M 7.421875 -8.375 L 2.796875 -8.375 L 2.796875 -5.8125 L 7.203125 -5.8125 L 7.203125 -4.25 L 2.796875 -4.25 L 2.796875 -1.5625 L 7.59375 -1.5625 L 7.46875 0 L 1.015625 0 L 1.015625 -9.953125 L 7.421875 -9.953125 Z M 7.421875 -8.375 "/></g></g></g><g fill="#000000" fill-opacity="1"><g transform="translate(87.323705, 185.666156)"><g><path d="M 4.125 0.125 C 2.957031 0.125 2.046875 -0.132812 1.390625 -0.65625 C 0.734375 -1.175781 0.359375 -1.941406 0.265625 -2.953125 L 1.96875 -3.203125 C 2.144531 -2.015625 2.890625 -1.421875 4.203125 -1.421875 C 4.773438 -1.421875 5.21875 -1.535156 5.53125 -1.765625 C 5.851562 -1.992188 6.015625 -2.3125 6.015625 -2.71875 C 6.015625 -3.09375 5.851562 -3.375 5.53125 -3.5625 C 5.21875 -3.757812 4.710938 -3.941406 4.015625 -4.109375 C 3.359375 -4.265625 2.796875 -4.453125 2.328125 -4.671875 C 1.859375 -4.890625 1.5 -5.1875 1.25 -5.5625 C 1.007812 -5.9375 0.890625 -6.429688 0.890625 -7.046875 C 0.890625 -7.640625 1.039062 -8.164062 1.34375 -8.625 C 1.644531 -9.082031 2.0625 -9.441406 2.59375 -9.703125 C 3.125 -9.960938 3.738281 -10.09375 4.4375 -10.09375 C 5.363281 -10.09375 6.117188 -9.847656 6.703125 -9.359375 C 7.296875 -8.878906 7.644531 -8.210938 7.75 -7.359375 L 6.15625 -7.09375 C 5.957031 -8.0625 5.359375 -8.546875 4.359375 -8.546875 C 3.867188 -8.546875 3.472656 -8.421875 3.171875 -8.171875 C 2.867188 -7.921875 2.71875 -7.585938 2.71875 -7.171875 C 2.71875 -6.765625 2.863281 -6.453125 3.15625 -6.234375 C 3.457031 -6.015625 3.96875 -5.816406 4.6875 -5.640625 C 5.332031 -5.492188 5.890625 -5.320312 6.359375 -5.125 C 6.828125 -4.925781 7.1875 -4.644531 7.4375 -4.28125 C 7.695312 -3.925781 7.828125 -3.441406 7.828125 -2.828125 C 7.828125 -2.253906 7.671875 -1.742188 7.359375 -1.296875 C 7.046875 -0.847656 6.613281 -0.5 6.0625 -0.25 C 5.507812 0 4.863281 0.125 4.125 0.125 Z M 4.125 0.125 "/></g></g></g><g fill="#000000" fill-opacity="1"><g transform="translate(106.192907, 185.666156)"><g><path d="M 8.234375 -9.953125 L 8.015625 -8.359375 L 4.9375 -8.359375 L 4.9375 0 L 3.109375 0 L 3.109375 -8.359375 L -0.078125 -8.359375 L -0.078125 -9.953125 Z M 8.234375 -9.953125 "/></g></g></g><g fill="#000000" fill-opacity="1"><g transform="translate(124.894091, 185.666156)"><g><path d="M 1.015625 0 L 1.015625 -9.953125 L 2.84375 -9.953125 L 2.84375 -5.828125 L 7.546875 -5.828125 L 7.546875 -9.953125 L 9.390625 -9.953125 L 9.390625 0 L 7.546875 0 L 7.546875 -4.234375 L 2.84375 -4.234375 L 2.84375 0 Z M 1.015625 0 "/></g></g></g><g fill="#000000" fill-opacity="1"><g transform="translate(145.947527, 185.666156)"><g><path d="M 7.421875 -8.375 L 2.796875 -8.375 L 2.796875 -5.8125 L 7.203125 -5.8125 L 7.203125 -4.25 L 2.796875 -4.25 L 2.796875 -1.5625 L 7.59375 -1.5625 L 7.46875 0 L 1.015625 0 L 1.015625 -9.953125 L 7.421875 -9.953125 Z M 7.421875 -8.375 "/></g></g></g><g fill="#000000" fill-opacity="1"><g transform="translate(164.522705, 185.666156)"><g><path d="M 8.890625 -1.734375 L 9.3125 -0.328125 C 9.125 -0.179688 8.894531 -0.0703125 8.625 0 C 8.351562 0.0820312 8.066406 0.125 7.765625 0.125 C 6.710938 0.125 5.890625 -0.335938 5.296875 -1.265625 L 3.859375 -3.46875 C 3.703125 -3.707031 3.546875 -3.875 3.390625 -3.96875 C 3.234375 -4.0625 3.0625 -4.109375 2.875 -4.109375 L 2.796875 -4.109375 L 2.796875 0 L 1.015625 0 L 1.015625 -9.953125 L 4.125 -9.953125 C 5.382812 -9.953125 6.335938 -9.6875 6.984375 -9.15625 C 7.628906 -8.632812 7.953125 -7.921875 7.953125 -7.015625 C 7.953125 -6.460938 7.832031 -5.984375 7.59375 -5.578125 C 7.351562 -5.179688 7.019531 -4.863281 6.59375 -4.625 C 6.175781 -4.394531 5.703125 -4.25 5.171875 -4.1875 C 5.453125 -4.039062 5.707031 -3.789062 5.9375 -3.4375 L 6.734375 -2.265625 C 6.929688 -1.972656 7.117188 -1.769531 7.296875 -1.65625 C 7.484375 -1.539062 7.71875 -1.484375 8 -1.484375 C 8.332031 -1.484375 8.628906 -1.566406 8.890625 -1.734375 Z M 4 -8.46875 L 2.796875 -8.46875 L 2.796875 -5.53125 L 3.90625 -5.53125 C 4.675781 -5.53125 5.242188 -5.644531 5.609375 -5.875 C 5.972656 -6.113281 6.15625 -6.492188 6.15625 -7.015625 C 6.15625 -7.984375 5.4375 -8.46875 4 -8.46875 Z M 4 -8.46875 "/></g></g></g><g fill="#000000" fill-opacity="1"><g transform="translate(183.965977, 185.666156)"><g/></g></g><g fill="#000000" fill-opacity="1"><g transform="translate(198.03267, 185.666156)"><g><path d="M 8.515625 -9.953125 L 5.046875 -4.453125 L 5.046875 0 L 3.203125 0 L 3.203125 -4.421875 L -0.359375 -9.953125 L 1.703125 -9.953125 L 4.203125 -6.046875 L 6.609375 -9.953125 Z M 8.515625 -9.953125 "/></g></g></g><g fill="#000000" fill-opacity="1"><g transform="translate(216.915881, 185.666156)"><g><path d="M -0.140625 0 L 4.109375 -9.953125 L 5.640625 -9.953125 L 9.734375 0 L 7.875 0 L 6.984375 -2.265625 L 2.640625 -2.265625 L 1.703125 0 Z M 3.265625 -3.796875 L 6.390625 -3.796875 L 4.84375 -7.703125 Z M 3.265625 -3.796875 "/></g></g></g><g fill="#000000" fill-opacity="1"><g transform="translate(237.213229, 185.666156)"><g><path d="M 4.125 0.125 C 2.957031 0.125 2.046875 -0.132812 1.390625 -0.65625 C 0.734375 -1.175781 0.359375 -1.941406 0.265625 -2.953125 L 1.96875 -3.203125 C 2.144531 -2.015625 2.890625 -1.421875 4.203125 -1.421875 C 4.773438 -1.421875 5.21875 -1.535156 5.53125 -1.765625 C 5.851562 -1.992188 6.015625 -2.3125 6.015625 -2.71875 C 6.015625 -3.09375 5.851562 -3.375 5.53125 -3.5625 C 5.21875 -3.757812 4.710938 -3.941406 4.015625 -4.109375 C 3.359375 -4.265625 2.796875 -4.453125 2.328125 -4.671875 C 1.859375 -4.890625 1.5 -5.1875 1.25 -5.5625 C 1.007812 -5.9375 0.890625 -6.429688 0.890625 -7.046875 C 0.890625 -7.640625 1.039062 -8.164062 1.34375 -8.625 C 1.644531 -9.082031 2.0625 -9.441406 2.59375 -9.703125 C 3.125 -9.960938 3.738281 -10.09375 4.4375 -10.09375 C 5.363281 -10.09375 6.117188 -9.847656 6.703125 -9.359375 C 7.296875 -8.878906 7.644531 -8.210938 7.75 -7.359375 L 6.15625 -7.09375 C 5.957031 -8.0625 5.359375 -8.546875 4.359375 -8.546875 C 3.867188 -8.546875 3.472656 -8.421875 3.171875 -8.171875 C 2.867188 -7.921875 2.71875 -7.585938 2.71875 -7.171875 C 2.71875 -6.765625 2.863281 -6.453125 3.15625 -6.234375 C 3.457031 -6.015625 3.96875 -5.816406 4.6875 -5.640625 C 5.332031 -5.492188 5.890625 -5.320312 6.359375 -5.125 C 6.828125 -4.925781 7.1875 -4.644531 7.4375 -4.28125 C 7.695312 -3.925781 7.828125 -3.441406 7.828125 -2.828125 C 7.828125 -2.253906 7.671875 -1.742188 7.359375 -1.296875 C 7.046875 -0.847656 6.613281 -0.5 6.0625 -0.25 C 5.507812 0 4.863281 0.125 4.125 0.125 Z M 4.125 0.125 "/></g></g></g><g fill="#000000" fill-opacity="1"><g transform="translate(256.082423, 185.666156)"><g><path d="M 1.015625 0 L 1.015625 -9.953125 L 2.84375 -9.953125 L 2.84375 -5.828125 L 7.546875 -5.828125 L 7.546875 -9.953125 L 9.390625 -9.953125 L 9.390625 0 L 7.546875 0 L 7.546875 -4.234375 L 2.84375 -4.234375 L 2.84375 0 Z M 1.015625 0 "/></g></g></g><g fill="#000000" fill-opacity="1"><g transform="translate(277.135851, 185.666156)"><g><path d="M -0.140625 0 L 4.109375 -9.953125 L 5.640625 -9.953125 L 9.734375 0 L 7.875 0 L 6.984375 -2.265625 L 2.640625 -2.265625 L 1.703125 0 Z M 3.265625 -3.796875 L 6.390625 -3.796875 L 4.84375 -7.703125 Z M 3.265625 -3.796875 "/></g></g></g><g fill="#000000" fill-opacity="1"><g transform="translate(297.433215, 185.666156)"><g><path d="M 8.890625 -1.734375 L 9.3125 -0.328125 C 9.125 -0.179688 8.894531 -0.0703125 8.625 0 C 8.351562 0.0820312 8.066406 0.125 7.765625 0.125 C 6.710938 0.125 5.890625 -0.335938 5.296875 -1.265625 L 3.859375 -3.46875 C 3.703125 -3.707031 3.546875 -3.875 3.390625 -3.96875 C 3.234375 -4.0625 3.0625 -4.109375 2.875 -4.109375 L 2.796875 -4.109375 L 2.796875 0 L 1.015625 0 L 1.015625 -9.953125 L 4.125 -9.953125 C 5.382812 -9.953125 6.335938 -9.6875 6.984375 -9.15625 C 7.628906 -8.632812 7.953125 -7.921875 7.953125 -7.015625 C 7.953125 -6.460938 7.832031 -5.984375 7.59375 -5.578125 C 7.351562 -5.179688 7.019531 -4.863281 6.59375 -4.625 C 6.175781 -4.394531 5.703125 -4.25 5.171875 -4.1875 C 5.453125 -4.039062 5.707031 -3.789062 5.9375 -3.4375 L 6.734375 -2.265625 C 6.929688 -1.972656 7.117188 -1.769531 7.296875 -1.65625 C 7.484375 -1.539062 7.71875 -1.484375 8 -1.484375 C 8.332031 -1.484375 8.628906 -1.566406 8.890625 -1.734375 Z M 4 -8.46875 L 2.796875 -8.46875 L 2.796875 -5.53125 L 3.90625 -5.53125 C 4.675781 -5.53125 5.242188 -5.644531 5.609375 -5.875 C 5.972656 -6.113281 6.15625 -6.492188 6.15625 -7.015625 C 6.15625 -7.984375 5.4375 -8.46875 4 -8.46875 Z M 4 -8.46875 "/></g></g></g><path fill="#e1e1e1" d="M 100.929688 237.785156 L 199.914062 237.785156 C 201.476562 237.785156 202.980469 238.410156 204.085938 239.515625 C 205.191406 240.621094 205.8125 242.121094 205.8125 243.6875 L 205.8125 255.492188 C 205.8125 257.054688 205.191406 258.558594 204.085938 259.664062 C 202.980469 260.769531 201.476562 261.390625 199.914062 261.390625 L 100.929688 261.390625 C 99.367188 261.390625 97.863281 260.769531 96.757812 259.664062 C 95.652344 258.558594 95.027344 257.054688 95.027344 255.492188 L 95.027344 243.6875 C 95.027344 240.429688 97.671875 237.785156 100.929688 237.785156 Z M 100.929688 237.785156 " fill-opacity="1" fill-rule="nonzero"/><g fill="#000000" fill-opacity="1"><g transform="translate(100.158059, 254.839349)"><g><path d="M 1.015625 0 L 1.015625 -9.953125 L 3.984375 -9.953125 C 5.910156 -9.953125 7.367188 -9.535156 8.359375 -8.703125 C 9.359375 -7.867188 9.859375 -6.640625 9.859375 -5.015625 C 9.859375 -4.003906 9.632812 -3.125 9.1875 -2.375 C 8.75 -1.625 8.128906 -1.039062 7.328125 -0.625 C 6.523438 -0.207031 5.582031 0 4.5 0 Z M 2.84375 -1.609375 L 4.421875 -1.609375 C 5.597656 -1.609375 6.488281 -1.890625 7.09375 -2.453125 C 7.695312 -3.023438 8 -3.859375 8 -4.953125 C 8 -6.085938 7.6875 -6.9375 7.0625 -7.5 C 6.445312 -8.0625 5.5 -8.34375 4.21875 -8.34375 L 2.84375 -8.34375 Z M 2.84375 -1.609375 "/></g></g></g><g fill="#000000" fill-opacity="1"><g transform="translate(109.680122, 254.839349)"><g><path d="M 7.53125 -7.046875 L 7.53125 0 L 5.78125 0 L 5.84375 -1.234375 C 5.59375 -0.804688 5.265625 -0.472656 4.859375 -0.234375 C 4.453125 0.00390625 3.988281 0.125 3.46875 0.125 C 2.84375 0.125 2.316406 -0.015625 1.890625 -0.296875 C 1.460938 -0.585938 1.132812 -0.984375 0.90625 -1.484375 C 0.6875 -1.992188 0.578125 -2.570312 0.578125 -3.21875 C 0.578125 -4.007812 0.726562 -4.703125 1.03125 -5.296875 C 1.34375 -5.890625 1.765625 -6.351562 2.296875 -6.6875 C 2.835938 -7.019531 3.445312 -7.1875 4.125 -7.1875 C 4.570312 -7.1875 4.96875 -7.085938 5.3125 -6.890625 C 5.65625 -6.703125 5.921875 -6.453125 6.109375 -6.140625 L 6.28125 -7.046875 Z M 4.25 -5.671875 C 3.664062 -5.671875 3.203125 -5.453125 2.859375 -5.015625 C 2.515625 -4.578125 2.34375 -4.003906 2.34375 -3.296875 C 2.34375 -2.679688 2.472656 -2.207031 2.734375 -1.875 C 2.992188 -1.539062 3.351562 -1.375 3.8125 -1.375 C 4.1875 -1.375 4.523438 -1.476562 4.828125 -1.6875 C 5.128906 -1.90625 5.367188 -2.207031 5.546875 -2.59375 C 5.722656 -2.976562 5.8125 -3.414062 5.8125 -3.90625 C 5.8125 -4.457031 5.671875 -4.890625 5.390625 -5.203125 C 5.109375 -5.515625 4.726562 -5.671875 4.25 -5.671875 Z M 4.25 -5.671875 "/></g></g></g><g fill="#000000" fill-opacity="1"><g transform="translate(117.157606, 254.839349)"><g><path d="M 3.390625 0.125 C 2.421875 0.125 1.675781 -0.0546875 1.15625 -0.421875 C 0.644531 -0.796875 0.347656 -1.3125 0.265625 -1.96875 L 1.703125 -2.328125 C 1.765625 -1.972656 1.929688 -1.695312 2.203125 -1.5 C 2.472656 -1.3125 2.859375 -1.21875 3.359375 -1.21875 C 3.773438 -1.21875 4.085938 -1.28125 4.296875 -1.40625 C 4.503906 -1.539062 4.609375 -1.722656 4.609375 -1.953125 C 4.609375 -2.171875 4.492188 -2.34375 4.265625 -2.46875 C 4.035156 -2.59375 3.679688 -2.703125 3.203125 -2.796875 C 2.671875 -2.890625 2.21875 -3.015625 1.84375 -3.171875 C 1.46875 -3.335938 1.175781 -3.554688 0.96875 -3.828125 C 0.769531 -4.109375 0.671875 -4.472656 0.671875 -4.921875 C 0.671875 -5.347656 0.789062 -5.734375 1.03125 -6.078125 C 1.28125 -6.421875 1.613281 -6.691406 2.03125 -6.890625 C 2.457031 -7.085938 2.945312 -7.1875 3.5 -7.1875 C 4.238281 -7.1875 4.84375 -7.015625 5.3125 -6.671875 C 5.789062 -6.328125 6.078125 -5.882812 6.171875 -5.34375 L 4.75 -4.96875 C 4.6875 -5.238281 4.546875 -5.445312 4.328125 -5.59375 C 4.117188 -5.75 3.832031 -5.828125 3.46875 -5.828125 C 3.101562 -5.828125 2.820312 -5.75 2.625 -5.59375 C 2.4375 -5.445312 2.34375 -5.265625 2.34375 -5.046875 C 2.34375 -4.816406 2.453125 -4.640625 2.671875 -4.515625 C 2.890625 -4.390625 3.265625 -4.269531 3.796875 -4.15625 C 4.296875 -4.0625 4.726562 -3.9375 5.09375 -3.78125 C 5.457031 -3.625 5.75 -3.410156 5.96875 -3.140625 C 6.1875 -2.878906 6.296875 -2.523438 6.296875 -2.078125 C 6.296875 -1.640625 6.171875 -1.253906 5.921875 -0.921875 C 5.671875 -0.585938 5.328125 -0.328125 4.890625 -0.140625 C 4.453125 0.0351562 3.953125 0.125 3.390625 0.125 Z M 3.390625 0.125 "/></g></g></g><g fill="#000000" fill-opacity="1"><g transform="translate(122.814577, 254.839349)"><g><path d="M 0.90625 0 L 0.90625 -10.375 L 2.625 -10.375 L 2.640625 -7.078125 L 2.53125 -5.3125 C 2.8125 -5.90625 3.179688 -6.363281 3.640625 -6.6875 C 4.109375 -7.019531 4.640625 -7.1875 5.234375 -7.1875 C 6.035156 -7.1875 6.640625 -6.910156 7.046875 -6.359375 C 7.453125 -5.816406 7.648438 -5.035156 7.640625 -4.015625 L 7.609375 0 L 5.90625 0 L 5.921875 -3.875 C 5.929688 -4.425781 5.84375 -4.847656 5.65625 -5.140625 C 5.476562 -5.441406 5.191406 -5.59375 4.796875 -5.59375 C 4.484375 -5.59375 4.195312 -5.503906 3.9375 -5.328125 C 3.675781 -5.148438 3.445312 -4.847656 3.25 -4.421875 C 3.050781 -3.992188 2.894531 -3.414062 2.78125 -2.6875 C 2.675781 -1.96875 2.617188 -1.070312 2.609375 0 Z M 0.90625 0 "/></g></g></g><g fill="#000000" fill-opacity="1"><g transform="translate(130.306069, 254.839349)"><g><path d="M 0.90625 0 L 0.90625 -10.375 L 2.625 -10.375 L 2.625 -7.078125 L 2.5625 -5.78125 C 2.8125 -6.238281 3.140625 -6.585938 3.546875 -6.828125 C 3.953125 -7.066406 4.425781 -7.1875 4.96875 -7.1875 C 5.59375 -7.1875 6.117188 -7.039062 6.546875 -6.75 C 6.972656 -6.46875 7.296875 -6.070312 7.515625 -5.5625 C 7.742188 -5.0625 7.859375 -4.488281 7.859375 -3.84375 C 7.859375 -3.050781 7.703125 -2.359375 7.390625 -1.765625 C 7.085938 -1.171875 6.664062 -0.707031 6.125 -0.375 C 5.59375 -0.0390625 4.988281 0.125 4.3125 0.125 C 3.851562 0.125 3.453125 0.03125 3.109375 -0.15625 C 2.765625 -0.351562 2.503906 -0.609375 2.328125 -0.921875 L 2.15625 0 Z M 4.171875 -1.375 C 4.765625 -1.375 5.234375 -1.597656 5.578125 -2.046875 C 5.921875 -2.492188 6.09375 -3.070312 6.09375 -3.78125 C 6.09375 -4.382812 5.960938 -4.847656 5.703125 -5.171875 C 5.441406 -5.503906 5.082031 -5.671875 4.625 -5.671875 C 4.238281 -5.671875 3.894531 -5.566406 3.59375 -5.359375 C 3.300781 -5.148438 3.066406 -4.851562 2.890625 -4.46875 C 2.710938 -4.09375 2.625 -3.660156 2.625 -3.171875 C 2.625 -2.617188 2.765625 -2.179688 3.046875 -1.859375 C 3.328125 -1.535156 3.703125 -1.375 4.171875 -1.375 Z M 4.171875 -1.375 "/></g></g></g><g fill="#000000" fill-opacity="1"><g transform="translate(137.783552, 254.839349)"><g><path d="M 4.234375 -7.1875 C 5.285156 -7.1875 6.113281 -6.867188 6.71875 -6.234375 C 7.320312 -5.609375 7.625 -4.757812 7.625 -3.6875 C 7.625 -2.957031 7.472656 -2.304688 7.171875 -1.734375 C 6.867188 -1.160156 6.441406 -0.707031 5.890625 -0.375 C 5.335938 -0.0390625 4.695312 0.125 3.96875 0.125 C 2.90625 0.125 2.070312 -0.1875 1.46875 -0.8125 C 0.875 -1.4375 0.578125 -2.289062 0.578125 -3.375 C 0.578125 -4.101562 0.726562 -4.753906 1.03125 -5.328125 C 1.332031 -5.898438 1.753906 -6.351562 2.296875 -6.6875 C 2.847656 -7.019531 3.492188 -7.1875 4.234375 -7.1875 Z M 4.015625 -1.375 C 4.566406 -1.375 5.007812 -1.582031 5.34375 -2 C 5.6875 -2.425781 5.859375 -2.988281 5.859375 -3.6875 C 5.859375 -4.320312 5.707031 -4.8125 5.40625 -5.15625 C 5.113281 -5.5 4.710938 -5.671875 4.203125 -5.671875 C 3.628906 -5.671875 3.175781 -5.460938 2.84375 -5.046875 C 2.507812 -4.628906 2.34375 -4.070312 2.34375 -3.375 C 2.34375 -2.738281 2.488281 -2.242188 2.78125 -1.890625 C 3.070312 -1.546875 3.484375 -1.375 4.015625 -1.375 Z M 4.015625 -1.375 "/></g></g></g><g fill="#000000" fill-opacity="1"><g transform="translate(145.022964, 254.839349)"><g><path d="M 7.53125 -7.046875 L 7.53125 0 L 5.78125 0 L 5.84375 -1.234375 C 5.59375 -0.804688 5.265625 -0.472656 4.859375 -0.234375 C 4.453125 0.00390625 3.988281 0.125 3.46875 0.125 C 2.84375 0.125 2.316406 -0.015625 1.890625 -0.296875 C 1.460938 -0.585938 1.132812 -0.984375 0.90625 -1.484375 C 0.6875 -1.992188 0.578125 -2.570312 0.578125 -3.21875 C 0.578125 -4.007812 0.726562 -4.703125 1.03125 -5.296875 C 1.34375 -5.890625 1.765625 -6.351562 2.296875 -6.6875 C 2.835938 -7.019531 3.445312 -7.1875 4.125 -7.1875 C 4.570312 -7.1875 4.96875 -7.085938 5.3125 -6.890625 C 5.65625 -6.703125 5.921875 -6.453125 6.109375 -6.140625 L 6.28125 -7.046875 Z M 4.25 -5.671875 C 3.664062 -5.671875 3.203125 -5.453125 2.859375 -5.015625 C 2.515625 -4.578125 2.34375 -4.003906 2.34375 -3.296875 C 2.34375 -2.679688 2.472656 -2.207031 2.734375 -1.875 C 2.992188 -1.539062 3.351562 -1.375 3.8125 -1.375 C 4.1875 -1.375 4.523438 -1.476562 4.828125 -1.6875 C 5.128906 -1.90625 5.367188 -2.207031 5.546875 -2.59375 C 5.722656 -2.976562 5.8125 -3.414062 5.8125 -3.90625 C 5.8125 -4.457031 5.671875 -4.890625 5.390625 -5.203125 C 5.109375 -5.515625 4.726562 -5.671875 4.25 -5.671875 Z M 4.25 -5.671875 "/></g></g></g><g fill="#000000" fill-opacity="1"><g transform="translate(152.500447, 254.839349)"><g><path d="M 5.453125 -5.421875 C 5.265625 -5.484375 5.023438 -5.515625 4.734375 -5.515625 C 4.234375 -5.515625 3.828125 -5.332031 3.515625 -4.96875 C 3.210938 -4.601562 2.988281 -4.015625 2.84375 -3.203125 C 2.695312 -2.390625 2.625 -1.320312 2.625 0 L 0.921875 0 L 0.921875 -4.5625 L 0.90625 -7.078125 L 2.625 -7.078125 L 2.53125 -5.109375 C 2.78125 -5.859375 3.117188 -6.390625 3.546875 -6.703125 C 3.984375 -7.023438 4.453125 -7.1875 4.953125 -7.1875 C 5.097656 -7.1875 5.234375 -7.175781 5.359375 -7.15625 C 5.492188 -7.144531 5.617188 -7.117188 5.734375 -7.078125 Z M 5.453125 -5.421875 "/></g></g></g><g fill="#000000" fill-opacity="1"><g transform="translate(157.26116, 254.839349)"><g><path d="M 7.53125 -10.375 L 7.53125 0 L 5.78125 0 L 5.84375 -1.234375 C 5.59375 -0.796875 5.265625 -0.457031 4.859375 -0.21875 C 4.460938 0.0078125 4 0.125 3.46875 0.125 C 2.84375 0.125 2.316406 -0.015625 1.890625 -0.296875 C 1.460938 -0.585938 1.132812 -0.984375 0.90625 -1.484375 C 0.6875 -1.992188 0.578125 -2.570312 0.578125 -3.21875 C 0.578125 -4.007812 0.726562 -4.703125 1.03125 -5.296875 C 1.34375 -5.890625 1.765625 -6.351562 2.296875 -6.6875 C 2.835938 -7.019531 3.445312 -7.1875 4.125 -7.1875 C 4.476562 -7.1875 4.800781 -7.125 5.09375 -7 C 5.382812 -6.882812 5.628906 -6.71875 5.828125 -6.5 L 5.8125 -7.078125 L 5.8125 -10.375 Z M 4.25 -5.671875 C 3.664062 -5.671875 3.203125 -5.453125 2.859375 -5.015625 C 2.515625 -4.578125 2.34375 -4.003906 2.34375 -3.296875 C 2.34375 -2.679688 2.472656 -2.207031 2.734375 -1.875 C 2.992188 -1.539062 3.351562 -1.375 3.8125 -1.375 C 4.1875 -1.375 4.523438 -1.476562 4.828125 -1.6875 C 5.128906 -1.90625 5.367188 -2.207031 5.546875 -2.59375 C 5.722656 -2.976562 5.8125 -3.414062 5.8125 -3.90625 C 5.8125 -4.457031 5.671875 -4.890625 5.390625 -5.203125 C 5.109375 -5.515625 4.726562 -5.671875 4.25 -5.671875 Z M 4.25 -5.671875 "/></g></g></g><g fill="#000000" fill-opacity="1"><g transform="translate(164.738644, 254.839349)"><g/></g></g><g fill="#000000" fill-opacity="1"><g transform="translate(167.188692, 254.839349)"><g><path d="M 2.796875 0 L 1.015625 0 L 1.015625 -9.953125 L 4.53125 -9.953125 C 5.820312 -9.953125 6.804688 -9.6875 7.484375 -9.15625 C 8.160156 -8.632812 8.5 -7.878906 8.5 -6.890625 C 8.5 -5.890625 8.128906 -5.109375 7.390625 -4.546875 C 6.660156 -3.984375 5.585938 -3.703125 4.171875 -3.703125 L 2.796875 -3.703125 Z M 4.453125 -8.46875 L 2.796875 -8.46875 L 2.796875 -5.203125 L 4.28125 -5.203125 C 5.113281 -5.203125 5.722656 -5.335938 6.109375 -5.609375 C 6.492188 -5.878906 6.6875 -6.300781 6.6875 -6.875 C 6.6875 -7.4375 6.503906 -7.84375 6.140625 -8.09375 C 5.785156 -8.34375 5.222656 -8.46875 4.453125 -8.46875 Z M 4.453125 -8.46875 "/></g></g></g><g fill="#000000" fill-opacity="1"><g transform="translate(174.974262, 254.839349)"><g><path d="M 7.53125 -7.046875 L 7.53125 0 L 5.78125 0 L 5.84375 -1.234375 C 5.59375 -0.804688 5.265625 -0.472656 4.859375 -0.234375 C 4.453125 0.00390625 3.988281 0.125 3.46875 0.125 C 2.84375 0.125 2.316406 -0.015625 1.890625 -0.296875 C 1.460938 -0.585938 1.132812 -0.984375 0.90625 -1.484375 C 0.6875 -1.992188 0.578125 -2.570312 0.578125 -3.21875 C 0.578125 -4.007812 0.726562 -4.703125 1.03125 -5.296875 C 1.34375 -5.890625 1.765625 -6.351562 2.296875 -6.6875 C 2.835938 -7.019531 3.445312 -7.1875 4.125 -7.1875 C 4.570312 -7.1875 4.96875 -7.085938 5.3125 -6.890625 C 5.65625 -6.703125 5.921875 -6.453125 6.109375 -6.140625 L 6.28125 -7.046875 Z M 4.25 -5.671875 C 3.664062 -5.671875 3.203125 -5.453125 2.859375 -5.015625 C 2.515625 -4.578125 2.34375 -4.003906 2.34375 -3.296875 C 2.34375 -2.679688 2.472656 -2.207031 2.734375 -1.875 C 2.992188 -1.539062 3.351562 -1.375 3.8125 -1.375 C 4.1875 -1.375 4.523438 -1.476562 4.828125 -1.6875 C 5.128906 -1.90625 5.367188 -2.207031 5.546875 -2.59375 C 5.722656 -2.976562 5.8125 -3.414062 5.8125 -3.90625 C 5.8125 -4.457031 5.671875 -4.890625 5.390625 -5.203125 C 5.109375 -5.515625 4.726562 -5.671875 4.25 -5.671875 Z M 4.25 -5.671875 "/></g></g></g><g fill="#000000" fill-opacity="1"><g transform="translate(182.451745, 254.839349)"><g><path d="M 0.90625 0 L 0.90625 -7.078125 L 2.625 -7.078125 L 2.53125 -5.296875 C 2.800781 -5.898438 3.171875 -6.363281 3.640625 -6.6875 C 4.109375 -7.019531 4.640625 -7.1875 5.234375 -7.1875 C 6.035156 -7.1875 6.640625 -6.910156 7.046875 -6.359375 C 7.453125 -5.816406 7.648438 -5.035156 7.640625 -4.015625 L 7.609375 0 L 5.90625 0 L 5.921875 -3.875 C 5.929688 -4.425781 5.84375 -4.847656 5.65625 -5.140625 C 5.476562 -5.441406 5.191406 -5.59375 4.796875 -5.59375 C 4.484375 -5.59375 4.195312 -5.503906 3.9375 -5.328125 C 3.675781 -5.148438 3.445312 -4.847656 3.25 -4.421875 C 3.050781 -3.992188 2.894531 -3.414062 2.78125 -2.6875 C 2.675781 -1.96875 2.617188 -1.070312 2.609375 0 Z M 0.90625 0 "/></g></g></g><g fill="#000000" fill-opacity="1"><g transform="translate(189.943236, 254.839349)"><g><path d="M 4.28125 0.125 C 3.519531 0.125 2.859375 -0.015625 2.296875 -0.296875 C 1.742188 -0.585938 1.316406 -1 1.015625 -1.53125 C 0.722656 -2.0625 0.578125 -2.695312 0.578125 -3.4375 C 0.578125 -4.175781 0.726562 -4.828125 1.03125 -5.390625 C 1.34375 -5.953125 1.757812 -6.390625 2.28125 -6.703125 C 2.8125 -7.023438 3.414062 -7.1875 4.09375 -7.1875 C 5.1875 -7.1875 5.988281 -6.816406 6.5 -6.078125 C 7.019531 -5.335938 7.203125 -4.3125 7.046875 -3 L 2.3125 -3 C 2.351562 -2.5 2.554688 -2.097656 2.921875 -1.796875 C 3.285156 -1.503906 3.785156 -1.359375 4.421875 -1.359375 C 4.710938 -1.359375 5.007812 -1.421875 5.3125 -1.546875 C 5.625 -1.679688 5.882812 -1.882812 6.09375 -2.15625 L 7.09375 -1.15625 C 6.769531 -0.75 6.378906 -0.429688 5.921875 -0.203125 C 5.472656 0.015625 4.925781 0.125 4.28125 0.125 Z M 4.125 -5.90625 C 3.644531 -5.90625 3.25 -5.753906 2.9375 -5.453125 C 2.632812 -5.148438 2.441406 -4.75 2.359375 -4.25 L 5.578125 -4.25 C 5.597656 -4.820312 5.472656 -5.238281 5.203125 -5.5 C 4.929688 -5.769531 4.570312 -5.90625 4.125 -5.90625 Z M 4.125 -5.90625 "/></g></g></g><g fill="#000000" fill-opacity="1"><g transform="translate(196.594484, 254.839349)"><g><path d="M 2.953125 0.125 C 2.285156 0.125 1.773438 -0.0546875 1.421875 -0.421875 C 1.078125 -0.785156 0.90625 -1.300781 0.90625 -1.96875 L 0.90625 -10.375 L 2.625 -10.375 L 2.625 -2.109375 C 2.625 -1.609375 2.859375 -1.359375 3.328125 -1.359375 C 3.554688 -1.359375 3.757812 -1.414062 3.9375 -1.53125 L 4.359375 -0.28125 C 4.210938 -0.164062 4.007812 -0.0703125 3.75 0 C 3.5 0.0820312 3.234375 0.125 2.953125 0.125 Z M 2.953125 0.125 "/></g></g></g></svg>