<svg xmlns="http://www.w3.org/2000/svg" xmlns:xlink="http://www.w3.org/1999/xlink" width="200" zoomAndPan="magnify" viewBox="0 0 150 147.750002" height="197" preserveAspectRatio="xMidYMid meet" version="1.0"><defs><clipPath id="2a109379d3"><path d="M 45.492188 45 L 110.566406 45 L 110.566406 102.269531 L 45.492188 102.269531 Z M 45.492188 45 " clip-rule="nonzero"/></clipPath><clipPath id="aa683f95c5"><path d="M 67.429688 45.023438 L 88.824219 45.023438 C 94.582031 45.023438 100.105469 47.3125 104.175781 51.382812 C 108.25 55.457031 110.535156 60.980469 110.535156 66.738281 L 110.535156 80.558594 C 110.535156 86.316406 108.25 91.839844 104.175781 95.910156 C 100.105469 99.984375 94.582031 102.269531 88.824219 102.269531 L 67.429688 102.269531 C 61.671875 102.269531 56.148438 99.984375 52.074219 95.910156 C 48.003906 91.839844 45.714844 86.316406 45.714844 80.558594 L 45.714844 66.738281 C 45.714844 60.980469 48.003906 55.457031 52.074219 51.382812 C 56.148438 47.3125 61.671875 45.023438 67.429688 45.023438 Z M 67.429688 45.023438 " clip-rule="nonzero"/></clipPath><clipPath id="cd8a3d6502"><path d="M 0.125 0 L 149.871094 0 L 149.871094 147.5 L 0.125 147.5 Z M 0.125 0 " clip-rule="nonzero"/></clipPath></defs><g clip-path="url(#2a109379d3)"><g clip-path="url(#aa683f95c5)"><path fill="#f6f8ff" d="M 45.714844 45.023438 L 110.566406 45.023438 L 110.566406 102.269531 L 45.714844 102.269531 Z M 45.714844 45.023438 " fill-opacity="1" fill-rule="nonzero"/></g></g><g clip-path="url(#cd8a3d6502)"><path fill="#f6f8ff" d="M 22.882812 0 L 127.117188 0 C 127.859375 0 128.601562 0.0351562 129.339844 0.109375 C 130.078125 0.183594 130.8125 0.289062 131.539062 0.433594 C 132.265625 0.582031 132.984375 0.761719 133.695312 0.976562 C 134.40625 1.191406 135.105469 1.441406 135.789062 1.726562 C 136.476562 2.007812 137.144531 2.324219 137.800781 2.675781 C 138.453125 3.027344 139.089844 3.40625 139.707031 3.820312 C 140.324219 4.230469 140.917969 4.671875 141.492188 5.144531 C 142.066406 5.613281 142.617188 6.113281 143.140625 6.636719 C 143.664062 7.160156 144.164062 7.710938 144.632812 8.285156 C 145.105469 8.859375 145.546875 9.453125 145.960938 10.070312 C 146.371094 10.6875 146.753906 11.324219 147.101562 11.976562 C 147.453125 12.632812 147.769531 13.300781 148.054688 13.988281 C 148.335938 14.675781 148.585938 15.371094 148.800781 16.082031 C 149.019531 16.792969 149.199219 17.511719 149.34375 18.238281 C 149.488281 18.96875 149.597656 19.699219 149.667969 20.4375 C 149.742188 21.175781 149.777344 21.917969 149.777344 22.660156 L 149.777344 124.628906 C 149.777344 125.371094 149.742188 126.113281 149.667969 126.851562 C 149.597656 127.589844 149.488281 128.324219 149.34375 129.050781 C 149.199219 129.777344 149.019531 130.496094 148.800781 131.207031 C 148.585938 131.917969 148.335938 132.617188 148.054688 133.300781 C 147.769531 133.988281 147.453125 134.65625 147.101562 135.3125 C 146.753906 135.964844 146.371094 136.601562 145.960938 137.21875 C 145.546875 137.835938 145.105469 138.429688 144.632812 139.003906 C 144.164062 139.578125 143.664062 140.128906 143.140625 140.652344 C 142.617188 141.175781 142.066406 141.675781 141.492188 142.144531 C 140.917969 142.617188 140.324219 143.058594 139.707031 143.472656 C 139.089844 143.882812 138.453125 144.265625 137.800781 144.613281 C 137.144531 144.964844 136.476562 145.28125 135.789062 145.566406 C 135.105469 145.847656 134.40625 146.097656 133.695312 146.3125 C 132.984375 146.53125 132.265625 146.710938 131.539062 146.855469 C 130.8125 147 130.078125 147.109375 129.339844 147.179688 C 128.601562 147.253906 127.859375 147.289062 127.117188 147.289062 L 22.882812 147.289062 C 22.140625 147.289062 21.398438 147.253906 20.660156 147.179688 C 19.921875 147.109375 19.1875 147 18.460938 146.855469 C 17.734375 146.710938 17.015625 146.53125 16.304688 146.3125 C 15.59375 146.097656 14.894531 145.847656 14.210938 145.566406 C 13.523438 145.28125 12.855469 144.964844 12.199219 144.613281 C 11.546875 144.265625 10.910156 143.882812 10.292969 143.472656 C 9.675781 143.058594 9.082031 142.617188 8.507812 142.144531 C 7.933594 141.675781 7.382812 141.175781 6.859375 140.652344 C 6.335938 140.128906 5.835938 139.578125 5.367188 139.003906 C 4.894531 138.429688 4.453125 137.835938 4.039062 137.21875 C 3.628906 136.601562 3.246094 135.964844 2.898438 135.3125 C 2.546875 134.65625 2.230469 133.988281 1.945312 133.300781 C 1.664062 132.617188 1.414062 131.917969 1.199219 131.207031 C 0.980469 130.496094 0.800781 129.777344 0.65625 129.050781 C 0.511719 128.324219 0.402344 127.589844 0.332031 126.851562 C 0.257812 126.113281 0.222656 125.371094 0.222656 124.628906 L 0.222656 22.660156 C 0.222656 21.917969 0.257812 21.175781 0.332031 20.4375 C 0.402344 19.699219 0.511719 18.96875 0.65625 18.238281 C 0.800781 17.511719 0.980469 16.792969 1.199219 16.082031 C 1.414062 15.371094 1.664062 14.675781 1.945312 13.988281 C 2.230469 13.300781 2.546875 12.632812 2.898438 11.976562 C 3.246094 11.324219 3.628906 10.6875 4.039062 10.070312 C 4.453125 9.453125 4.894531 8.859375 5.367188 8.285156 C 5.835938 7.710938 6.335938 7.160156 6.859375 6.636719 C 7.382812 6.113281 7.933594 5.613281 8.507812 5.144531 C 9.082031 4.671875 9.675781 4.230469 10.292969 3.820312 C 10.910156 3.40625 11.546875 3.027344 12.199219 2.675781 C 12.855469 2.324219 13.523438 2.007812 14.210938 1.726562 C 14.894531 1.441406 15.59375 1.191406 16.304688 0.976562 C 17.015625 0.761719 17.734375 0.582031 18.460938 0.433594 C 19.1875 0.289062 19.921875 0.183594 20.660156 0.109375 C 21.398438 0.0351562 22.140625 0 22.882812 0 Z M 22.882812 0 " fill-opacity="1" fill-rule="nonzero"/></g><path fill="#f2d4b7" d="M 98.105469 46.78125 L 48.21875 46.78125 C 46.460938 46.78125 45.285156 45.605469 45.285156 43.847656 C 45.285156 42.085938 46.460938 40.910156 48.21875 40.910156 L 98.105469 40.910156 C 99.867188 40.910156 101.039062 42.085938 101.039062 43.847656 C 101.039062 45.605469 99.867188 46.78125 98.105469 46.78125 Z M 98.105469 46.78125 " fill-opacity="1" fill-rule="nonzero"/><path fill="#f2d4b7" d="M 114.945312 114.3125 L 106.78125 106.210938 C 108.824219 103.320312 109.699219 100.136719 109.699219 96.667969 C 109.699219 87.121094 101.824219 79.308594 92.496094 79.308594 C 83.164062 79.308594 75 87.121094 75 96.667969 C 75 106.210938 82.871094 114.023438 92.203125 114.023438 C 95.703125 114.023438 99.203125 112.867188 101.824219 111.128906 L 109.988281 119.230469 C 111.15625 120.386719 113.488281 120.386719 114.65625 119.230469 C 116.113281 117.785156 116.113281 115.46875 114.945312 114.3125 Z M 114.945312 114.3125 " fill-opacity="1" fill-rule="nonzero"/><path fill="#8fbc8f" d="M 69.335938 95.820312 C 69.335938 83 80.089844 72.511719 92.933594 72.511719 C 96.21875 72.511719 99.203125 73.09375 102.191406 74.261719 L 102.191406 52.117188 C 102.191406 50.371094 100.996094 49.203125 99.203125 49.203125 L 48.425781 49.203125 C 45.140625 49.203125 42.453125 46.582031 42.453125 43.378906 C 42.453125 40.171875 45.140625 37.550781 48.425781 37.550781 L 99.203125 37.550781 C 100.996094 37.550781 102.191406 36.386719 102.191406 34.636719 C 102.191406 32.890625 100.996094 31.722656 99.203125 31.722656 L 48.425781 31.722656 C 41.855469 31.722656 36.476562 36.96875 36.476562 43.378906 L 36.476562 101.644531 C 36.476562 108.054688 41.855469 113.300781 48.425781 113.300781 L 77.699219 113.300781 C 72.621094 108.929688 69.335938 102.8125 69.335938 95.820312 Z M 69.335938 95.820312 " fill-opacity="1" fill-rule="nonzero"/></svg>