<svg xmlns="http://www.w3.org/2000/svg" xmlns:xlink="http://www.w3.org/1999/xlink" width="30" zoomAndPan="magnify" viewBox="0 0 150 149.999998" height="30" preserveAspectRatio="xMidYMid meet" version="1.0"><path fill="#8fbc8f" d="M 72.707031 112.894531 L 110.207031 91.246094 L 72.707031 69.59375 L 72.707031 82.910156 L 39.789062 82.910156 L 39.789062 99.578125 L 72.707031 99.578125 Z M 72.707031 112.894531 " fill-opacity="1" fill-rule="nonzero"/><path fill="#8fbc8f" d="M 41.679688 33.332031 C 37.078125 33.332031 33.34375 37.0625 33.34375 41.664062 C 33.34375 46.265625 37.078125 50 41.679688 50 L 108.34375 50 C 112.949219 50 116.679688 46.265625 116.679688 41.664062 C 116.679688 37.0625 112.949219 33.332031 108.34375 33.332031 Z M 41.679688 33.332031 " fill-opacity="1" fill-rule="nonzero"/><path fill="#8fbc8f" d="M 25 0 C 11.191406 0 0 11.191406 0 25 L 0 125 C 0 138.808594 11.191406 150 25 150 L 125 150 C 138.808594 150 150 138.808594 150 125 L 150 25 C 150 11.191406 138.808594 0 125 0 Z M 125 16.667969 L 25 16.667969 C 20.398438 16.667969 16.667969 20.398438 16.667969 25 L 16.667969 125 C 16.667969 129.601562 20.398438 133.332031 25 133.332031 L 125 133.332031 C 129.601562 133.332031 133.332031 129.601562 133.332031 125 L 133.332031 25 C 133.332031 20.398438 129.601562 16.667969 125 16.667969 Z M 125 16.667969 " fill-opacity="1" fill-rule="evenodd"/></svg>