<svg xmlns="http://www.w3.org/2000/svg" xmlns:xlink="http://www.w3.org/1999/xlink" width="200" zoomAndPan="magnify" viewBox="0 0 150 147.750002" height="197" preserveAspectRatio="xMidYMid meet" version="1.0"><defs><clipPath id="930a895fcb"><path d="M 42.367188 45 L 107.4375 45 L 107.4375 102.269531 L 42.367188 102.269531 Z M 42.367188 45 " clip-rule="nonzero"/></clipPath><clipPath id="7f3a699c42"><path d="M 64.300781 45.023438 L 85.699219 45.023438 C 91.457031 45.023438 96.980469 47.3125 101.050781 51.382812 C 105.125 55.457031 107.410156 60.980469 107.410156 66.738281 L 107.410156 80.558594 C 107.410156 86.316406 105.125 91.839844 101.050781 95.910156 C 96.980469 99.984375 91.457031 102.269531 85.699219 102.269531 L 64.300781 102.269531 C 58.542969 102.269531 53.019531 99.984375 48.949219 95.910156 C 44.875 91.839844 42.589844 86.316406 42.589844 80.558594 L 42.589844 66.738281 C 42.589844 60.980469 44.875 55.457031 48.949219 51.382812 C 53.019531 47.3125 58.542969 45.023438 64.300781 45.023438 Z M 64.300781 45.023438 " clip-rule="nonzero"/></clipPath><clipPath id="6ce9bbbea4"><path d="M 0.125 0 L 149.871094 0 L 149.871094 147.5 L 0.125 147.5 Z M 0.125 0 " clip-rule="nonzero"/></clipPath></defs><g clip-path="url(#930a895fcb)"><g clip-path="url(#7f3a699c42)"><path fill="#f6f8ff" d="M 42.589844 45.023438 L 107.4375 45.023438 L 107.4375 102.269531 L 42.589844 102.269531 Z M 42.589844 45.023438 " fill-opacity="1" fill-rule="nonzero"/></g></g><g clip-path="url(#6ce9bbbea4)"><path fill="#f6f8ff" d="M 22.882812 0 L 127.117188 0 C 127.859375 0 128.601562 0.0351562 129.339844 0.109375 C 130.078125 0.183594 130.8125 0.289062 131.539062 0.433594 C 132.265625 0.582031 132.984375 0.761719 133.695312 0.976562 C 134.40625 1.191406 135.105469 1.441406 135.789062 1.726562 C 136.476562 2.007812 137.144531 2.324219 137.800781 2.675781 C 138.453125 3.027344 139.089844 3.40625 139.707031 3.820312 C 140.324219 4.230469 140.917969 4.671875 141.492188 5.144531 C 142.066406 5.613281 142.617188 6.113281 143.140625 6.636719 C 143.664062 7.160156 144.164062 7.710938 144.632812 8.285156 C 145.105469 8.859375 145.546875 9.453125 145.960938 10.070312 C 146.371094 10.6875 146.753906 11.324219 147.101562 11.976562 C 147.453125 12.632812 147.769531 13.300781 148.054688 13.988281 C 148.335938 14.675781 148.585938 15.371094 148.800781 16.082031 C 149.019531 16.792969 149.199219 17.511719 149.34375 18.238281 C 149.488281 18.96875 149.597656 19.699219 149.667969 20.4375 C 149.742188 21.175781 149.777344 21.917969 149.777344 22.660156 L 149.777344 124.628906 C 149.777344 125.371094 149.742188 126.113281 149.667969 126.851562 C 149.597656 127.589844 149.488281 128.324219 149.34375 129.050781 C 149.199219 129.777344 149.019531 130.496094 148.800781 131.207031 C 148.585938 131.917969 148.335938 132.617188 148.054688 133.300781 C 147.769531 133.988281 147.453125 134.65625 147.101562 135.3125 C 146.753906 135.964844 146.371094 136.601562 145.960938 137.21875 C 145.546875 137.835938 145.105469 138.429688 144.632812 139.003906 C 144.164062 139.578125 143.664062 140.128906 143.140625 140.652344 C 142.617188 141.175781 142.066406 141.675781 141.492188 142.144531 C 140.917969 142.617188 140.324219 143.058594 139.707031 143.472656 C 139.089844 143.882812 138.453125 144.265625 137.800781 144.613281 C 137.144531 144.964844 136.476562 145.28125 135.789062 145.566406 C 135.105469 145.847656 134.40625 146.097656 133.695312 146.3125 C 132.984375 146.53125 132.265625 146.710938 131.539062 146.855469 C 130.8125 147 130.078125 147.109375 129.339844 147.179688 C 128.601562 147.253906 127.859375 147.289062 127.117188 147.289062 L 22.882812 147.289062 C 22.140625 147.289062 21.398438 147.253906 20.660156 147.179688 C 19.921875 147.109375 19.1875 147 18.460938 146.855469 C 17.734375 146.710938 17.015625 146.53125 16.304688 146.3125 C 15.59375 146.097656 14.894531 145.847656 14.210938 145.566406 C 13.523438 145.28125 12.855469 144.964844 12.199219 144.613281 C 11.546875 144.265625 10.910156 143.882812 10.292969 143.472656 C 9.675781 143.058594 9.082031 142.617188 8.507812 142.144531 C 7.933594 141.675781 7.382812 141.175781 6.859375 140.652344 C 6.335938 140.128906 5.835938 139.578125 5.367188 139.003906 C 4.894531 138.429688 4.453125 137.835938 4.039062 137.21875 C 3.628906 136.601562 3.246094 135.964844 2.898438 135.3125 C 2.546875 134.65625 2.230469 133.988281 1.945312 133.300781 C 1.664062 132.617188 1.414062 131.917969 1.199219 131.207031 C 0.980469 130.496094 0.800781 129.777344 0.65625 129.050781 C 0.511719 128.324219 0.402344 127.589844 0.332031 126.851562 C 0.257812 126.113281 0.222656 125.371094 0.222656 124.628906 L 0.222656 22.660156 C 0.222656 21.917969 0.257812 21.175781 0.332031 20.4375 C 0.402344 19.699219 0.511719 18.96875 0.65625 18.238281 C 0.800781 17.511719 0.980469 16.792969 1.199219 16.082031 C 1.414062 15.371094 1.664062 14.675781 1.945312 13.988281 C 2.230469 13.300781 2.546875 12.632812 2.898438 11.976562 C 3.246094 11.324219 3.628906 10.6875 4.039062 10.070312 C 4.453125 9.453125 4.894531 8.859375 5.367188 8.285156 C 5.835938 7.710938 6.335938 7.160156 6.859375 6.636719 C 7.382812 6.113281 7.933594 5.613281 8.507812 5.144531 C 9.082031 4.671875 9.675781 4.230469 10.292969 3.820312 C 10.910156 3.40625 11.546875 3.027344 12.199219 2.675781 C 12.855469 2.324219 13.523438 2.007812 14.210938 1.726562 C 14.894531 1.441406 15.59375 1.191406 16.304688 0.976562 C 17.015625 0.761719 17.734375 0.582031 18.460938 0.433594 C 19.1875 0.289062 19.921875 0.183594 20.660156 0.109375 C 21.398438 0.0351562 22.140625 0 22.882812 0 Z M 22.882812 0 " fill-opacity="1" fill-rule="nonzero"/></g><path fill="#f7dece" d="M 60.527344 59.253906 L 61.042969 59.210938 C 61.238281 59.1875 61.414062 59.121094 61.5625 59.015625 L 61.558594 59.019531 C 62.050781 60.722656 62.65625 62.511719 63.410156 64.386719 C 64.378906 66.835938 65.332031 68.851562 66.402344 70.796875 L 66.253906 70.5 C 66.164062 71.84375 66.058594 73.21875 65.917969 74.550781 C 65.851562 75.375 65.691406 76.140625 65.441406 76.859375 L 65.460938 76.792969 C 65.417969 76.8125 65.355469 84.453125 65.355469 84.453125 C 65.359375 89.4375 68.808594 93.609375 73.449219 94.71875 L 73.523438 94.730469 C 73.730469 94.199219 74.238281 93.824219 74.835938 93.824219 L 76.949219 93.824219 C 77.542969 93.832031 78.050781 94.199219 78.261719 94.71875 L 78.265625 94.730469 C 82.988281 93.621094 86.453125 89.449219 86.472656 84.460938 C 86.472656 84.460938 86.34375 76.851562 86.277344 76.796875 C 86.074219 76.152344 85.914062 75.394531 85.828125 74.613281 L 85.824219 74.558594 C 85.695312 73.21875 85.613281 71.875 85.488281 70.507812 C 86.398438 68.867188 87.351562 66.855469 88.191406 64.78125 L 88.332031 64.394531 C 89.085938 62.519531 89.671875 60.730469 90.183594 59.027344 C 90.328125 59.128906 90.503906 59.199219 90.695312 59.222656 L 90.699219 59.222656 L 91.21875 59.265625 C 91.84375 59.332031 92.398438 58.816406 92.449219 58.019531 L 93.007812 50.90625 C 93.007812 50.902344 93.007812 50.902344 93.007812 50.902344 C 93.007812 50.300781 92.558594 49.804688 91.980469 49.734375 L 91.910156 49.734375 C 92.054688 48.699219 92.136719 47.503906 92.136719 46.292969 C 92.136719 43.648438 91.746094 41.09375 91.019531 38.691406 L 91.070312 38.878906 C 88.945312 34.214844 84.730469 30.832031 79.65625 29.886719 L 79.5625 29.871094 C 78.472656 29.644531 77.199219 29.496094 75.90625 29.457031 L 75.828125 29.457031 C 74.503906 29.484375 73.234375 29.632812 72.003906 29.894531 L 72.136719 29.871094 C 66.976562 30.84375 62.769531 34.226562 60.671875 38.777344 L 60.628906 38.878906 C 59.945312 41.085938 59.550781 43.628906 59.550781 46.257812 C 59.550781 47.484375 59.636719 48.691406 59.800781 49.871094 L 59.785156 49.734375 C 59.203125 49.800781 58.75 50.289062 58.75 50.886719 L 58.75 50.910156 L 59.308594 58.023438 C 59.359375 58.839844 59.917969 59.332031 60.523438 59.265625 Z M 60.527344 59.253906 " fill-opacity="1" fill-rule="nonzero"/><path fill="#8fbc8f" d="M 115.34375 106.3125 C 115.085938 95.121094 113.964844 92.585938 113.359375 90.871094 C 113.121094 90.183594 112.925781 85.527344 105.238281 82.507812 C 100.523438 80.652344 94.441406 80.613281 89.292969 78.4375 L 89.292969 84.492188 C 89.28125 91.003906 84.621094 96.417969 78.453125 97.601562 L 78.367188 97.617188 C 78.253906 98.285156 77.679688 98.789062 76.992188 98.792969 L 76.925781 98.792969 L 76.925781 103.359375 C 76.925781 107.824219 80.539062 111.441406 85.003906 111.441406 C 89.464844 111.441406 93.082031 107.824219 93.082031 103.359375 L 93.082031 100.171875 C 90.84375 99.835938 89.144531 97.929688 89.144531 95.625 C 89.144531 93.085938 91.203125 91.027344 93.742188 91.027344 C 96.277344 91.027344 98.335938 93.085938 98.335938 95.625 C 98.335938 97.636719 97.042969 99.34375 95.246094 99.96875 L 95.214844 99.980469 L 95.214844 103.535156 C 95.214844 109.175781 90.640625 113.75 85 113.75 C 79.359375 113.75 74.785156 109.175781 74.785156 103.535156 C 74.785156 103.472656 74.785156 103.414062 74.785156 103.351562 L 74.785156 103.355469 L 74.785156 98.75 C 74.128906 98.707031 73.597656 98.210938 73.496094 97.578125 L 73.496094 97.574219 C 67.273438 96.359375 62.632812 90.960938 62.617188 84.476562 L 62.617188 78.375 C 57.449219 80.597656 51.328125 80.640625 46.589844 82.5 C 38.878906 85.515625 38.703125 90.160156 38.464844 90.859375 C 37.875 92.582031 36.742188 95.105469 36.484375 106.308594 C 36.441406 107.78125 36.484375 110.035156 40.925781 112.011719 C 50.59375 115.804688 63.054688 116.980469 75.332031 117.828125 L 76.511719 117.828125 C 88.820312 116.988281 101.257812 115.816406 110.917969 112.011719 C 115.34375 110.046875 115.382812 107.800781 115.34375 106.3125 Z M 61.28125 101.75 L 56.695312 101.75 L 56.695312 106.355469 L 53.417969 106.355469 L 53.417969 101.761719 L 48.828125 101.761719 L 48.828125 98.484375 L 53.417969 98.484375 L 53.417969 93.898438 L 56.695312 93.898438 L 56.695312 98.484375 L 61.28125 98.484375 Z M 61.28125 101.75 " fill-opacity="1" fill-rule="nonzero"/><path fill="#000000" d="M 96.226562 95.585938 C 96.226562 94.21875 95.117188 93.105469 93.746094 93.105469 C 92.378906 93.105469 91.269531 94.214844 91.269531 95.582031 C 91.269531 96.953125 92.378906 98.0625 93.746094 98.0625 C 95.113281 98.0625 96.222656 96.953125 96.226562 95.585938 Z M 96.226562 95.585938 " fill-opacity="1" fill-rule="nonzero"/></svg>