<svg xmlns="http://www.w3.org/2000/svg" xmlns:xlink="http://www.w3.org/1999/xlink" width="500" zoomAndPan="magnify" viewBox="0 0 375 374.999991" height="500" preserveAspectRatio="xMidYMid meet" version="1.0"><defs><clipPath id="8db3adf192"><path d="M 22.382812 178.085938 L 337.171875 178.085938 L 337.171875 281.867188 L 22.382812 281.867188 Z M 22.382812 178.085938 " clip-rule="nonzero"/></clipPath></defs><path fill="#8fbc8f" d="M 375 187.5 C 375 190.570312 374.925781 193.636719 374.773438 196.699219 C 374.625 199.765625 374.398438 202.824219 374.097656 205.878906 C 373.796875 208.933594 373.421875 211.976562 372.96875 215.011719 C 372.519531 218.046875 371.996094 221.070312 371.398438 224.078125 C 370.796875 227.089844 370.125 230.082031 369.378906 233.058594 C 368.636719 236.035156 367.816406 238.992188 366.925781 241.929688 C 366.035156 244.863281 365.074219 247.777344 364.039062 250.667969 C 363.003906 253.554688 361.902344 256.417969 360.726562 259.253906 C 359.554688 262.089844 358.308594 264.890625 356.996094 267.667969 C 355.6875 270.441406 354.304688 273.179688 352.859375 275.886719 C 351.414062 278.59375 349.902344 281.261719 348.324219 283.894531 C 346.746094 286.527344 345.105469 289.117188 343.402344 291.667969 C 341.695312 294.222656 339.929688 296.730469 338.101562 299.195312 C 336.273438 301.660156 334.386719 304.078125 332.4375 306.449219 C 330.492188 308.820312 328.488281 311.144531 326.429688 313.417969 C 324.367188 315.691406 322.253906 317.914062 320.082031 320.082031 C 317.914062 322.253906 315.691406 324.367188 313.417969 326.429688 C 311.144531 328.488281 308.820312 330.492188 306.449219 332.4375 C 304.078125 334.386719 301.660156 336.273438 299.195312 338.101562 C 296.730469 339.929688 294.222656 341.695312 291.667969 343.402344 C 289.117188 345.105469 286.527344 346.746094 283.894531 348.324219 C 281.261719 349.902344 278.59375 351.414062 275.886719 352.859375 C 273.179688 354.308594 270.441406 355.6875 267.667969 356.996094 C 264.890625 358.308594 262.089844 359.554688 259.253906 360.726562 C 256.417969 361.902344 253.554688 363.003906 250.667969 364.039062 C 247.777344 365.074219 244.863281 366.035156 241.929688 366.925781 C 238.992188 367.816406 236.035156 368.636719 233.058594 369.378906 C 230.082031 370.125 227.089844 370.796875 224.078125 371.398438 C 221.070312 371.996094 218.046875 372.519531 215.011719 372.96875 C 211.976562 373.421875 208.933594 373.796875 205.878906 374.097656 C 202.824219 374.398438 199.765625 374.625 196.699219 374.773438 C 193.636719 374.925781 190.570312 375 187.5 375 C 184.429688 375 181.363281 374.925781 178.300781 374.773438 C 175.234375 374.625 172.175781 374.398438 169.121094 374.097656 C 166.066406 373.796875 163.023438 373.421875 159.988281 372.96875 C 156.953125 372.519531 153.929688 371.996094 150.921875 371.398438 C 147.910156 370.796875 144.917969 370.125 141.941406 369.378906 C 138.964844 368.636719 136.007812 367.816406 133.070312 366.925781 C 130.136719 366.035156 127.222656 365.074219 124.332031 364.039062 C 121.445312 363.003906 118.582031 361.902344 115.746094 360.726562 C 112.910156 359.554688 110.105469 358.308594 107.332031 356.996094 C 104.558594 355.6875 101.820312 354.308594 99.113281 352.859375 C 96.40625 351.414062 93.738281 349.902344 91.105469 348.324219 C 88.472656 346.746094 85.882812 345.105469 83.332031 343.402344 C 80.777344 341.695312 78.269531 339.929688 75.804688 338.101562 C 73.339844 336.273438 70.921875 334.386719 68.550781 332.4375 C 66.179688 330.492188 63.855469 328.488281 61.582031 326.429688 C 59.308594 324.367188 57.085938 322.253906 54.917969 320.082031 C 52.746094 317.914062 50.632812 315.691406 48.570312 313.417969 C 46.511719 311.144531 44.507812 308.820312 42.558594 306.449219 C 40.613281 304.078125 38.726562 301.660156 36.898438 299.195312 C 35.070312 296.730469 33.304688 294.222656 31.597656 291.667969 C 29.894531 289.117188 28.253906 286.527344 26.675781 283.894531 C 25.097656 281.261719 23.585938 278.59375 22.140625 275.886719 C 20.691406 273.179688 19.3125 270.441406 18.003906 267.667969 C 16.691406 264.890625 15.445312 262.089844 14.273438 259.253906 C 13.097656 256.417969 11.996094 253.554688 10.960938 250.667969 C 9.925781 247.777344 8.964844 244.863281 8.074219 241.929688 C 7.183594 238.992188 6.363281 236.035156 5.617188 233.058594 C 4.875 230.082031 4.203125 227.089844 3.601562 224.078125 C 3.003906 221.070312 2.480469 218.046875 2.03125 215.011719 C 1.578125 211.976562 1.203125 208.933594 0.902344 205.878906 C 0.601562 202.824219 0.375 199.765625 0.226562 196.699219 C 0.0742188 193.636719 0 190.570312 0 187.5 C 0 184.429688 0.0742188 181.363281 0.226562 178.300781 C 0.375 175.234375 0.601562 172.175781 0.902344 169.121094 C 1.203125 166.066406 1.578125 163.023438 2.03125 159.988281 C 2.480469 156.953125 3.003906 153.929688 3.601562 150.921875 C 4.203125 147.910156 4.875 144.917969 5.617188 141.941406 C 6.363281 138.964844 7.183594 136.007812 8.074219 133.070312 C 8.964844 130.136719 9.925781 127.222656 10.960938 124.332031 C 11.996094 121.445312 13.097656 118.582031 14.273438 115.746094 C 15.445312 112.910156 16.691406 110.105469 18.003906 107.332031 C 19.3125 104.558594 20.691406 101.820312 22.140625 99.113281 C 23.585938 96.40625 25.097656 93.738281 26.675781 91.105469 C 28.253906 88.472656 29.894531 85.882812 31.597656 83.332031 C 33.304688 80.777344 35.070312 78.269531 36.898438 75.804688 C 38.726562 73.339844 40.613281 70.921875 42.558594 68.550781 C 44.507812 66.179688 46.511719 63.855469 48.570312 61.582031 C 50.632812 59.308594 52.746094 57.085938 54.917969 54.917969 C 57.085938 52.746094 59.308594 50.632812 61.582031 48.570312 C 63.855469 46.511719 66.179688 44.507812 68.550781 42.558594 C 70.921875 40.613281 73.339844 38.726562 75.804688 36.898438 C 78.269531 35.070312 80.777344 33.304688 83.332031 31.597656 C 85.882812 29.894531 88.472656 28.253906 91.105469 26.675781 C 93.738281 25.097656 96.40625 23.585938 99.113281 22.140625 C 101.820312 20.691406 104.558594 19.3125 107.332031 18.003906 C 110.105469 16.691406 112.910156 15.445312 115.746094 14.273438 C 118.582031 13.097656 121.445312 11.996094 124.332031 10.960938 C 127.222656 9.925781 130.136719 8.964844 133.070312 8.074219 C 136.007812 7.183594 138.964844 6.363281 141.941406 5.617188 C 144.917969 4.875 147.910156 4.203125 150.921875 3.601562 C 153.929688 3.003906 156.953125 2.480469 159.988281 2.03125 C 163.023438 1.578125 166.066406 1.203125 169.121094 0.902344 C 172.175781 0.601562 175.234375 0.375 178.300781 0.226562 C 181.363281 0.0742188 184.429688 0 187.5 0 C 190.570312 0 193.636719 0.0742188 196.699219 0.226562 C 199.765625 0.375 202.824219 0.601562 205.878906 0.902344 C 208.933594 1.203125 211.976562 1.578125 215.011719 2.03125 C 218.046875 2.480469 221.070312 3.003906 224.078125 3.601562 C 227.089844 4.203125 230.082031 4.875 233.058594 5.617188 C 236.035156 6.363281 238.992188 7.183594 241.929688 8.074219 C 244.863281 8.964844 247.777344 9.925781 250.667969 10.960938 C 253.554688 11.996094 256.417969 13.097656 259.253906 14.273438 C 262.089844 15.445312 264.890625 16.691406 267.667969 18.003906 C 270.441406 19.3125 273.179688 20.691406 275.886719 22.140625 C 278.59375 23.585938 281.261719 25.097656 283.894531 26.675781 C 286.527344 28.253906 289.117188 29.894531 291.667969 31.597656 C 294.222656 33.304688 296.730469 35.070312 299.195312 36.898438 C 301.660156 38.726562 304.078125 40.613281 306.449219 42.558594 C 308.820312 44.507812 311.144531 46.511719 313.417969 48.570312 C 315.691406 50.632812 317.914062 52.746094 320.082031 54.917969 C 322.253906 57.085938 324.367188 59.308594 326.429688 61.582031 C 328.488281 63.855469 330.492188 66.179688 332.4375 68.550781 C 334.386719 70.921875 336.273438 73.339844 338.101562 75.804688 C 339.929688 78.269531 341.695312 80.777344 343.402344 83.332031 C 345.105469 85.882812 346.746094 88.472656 348.324219 91.105469 C 349.902344 93.738281 351.414062 96.40625 352.859375 99.113281 C 354.304688 101.820312 355.6875 104.558594 356.996094 107.332031 C 358.308594 110.105469 359.554688 112.910156 360.726562 115.746094 C 361.902344 118.582031 363.003906 121.445312 364.039062 124.332031 C 365.074219 127.222656 366.035156 130.136719 366.925781 133.070312 C 367.816406 136.007812 368.636719 138.964844 369.378906 141.941406 C 370.125 144.917969 370.796875 147.910156 371.398438 150.921875 C 371.996094 153.929688 372.519531 156.953125 372.96875 159.988281 C 373.421875 163.023438 373.796875 166.066406 374.097656 169.121094 C 374.398438 172.175781 374.625 175.234375 374.773438 178.300781 C 374.925781 181.363281 375 184.429688 375 187.5 Z M 375 187.5 " fill-opacity="1" fill-rule="nonzero"/><g clip-path="url(#8db3adf192)"><path fill="#fef5f0" d="M 305.40625 191.449219 C 303.5625 205.046875 307.363281 214.382812 311.390625 224.265625 C 312.34375 226.609375 313.335938 229.039062 314.238281 231.511719 C 317.132812 239.453125 317.308594 248.234375 314.734375 256.246094 C 312.136719 264.324219 306.835938 271.308594 299.796875 275.910156 C 293.582031 279.976562 286.339844 282.125 278.859375 282.125 C 272.257812 282.125 265.757812 280.425781 260.058594 277.210938 C 252.0625 272.703125 246.015625 265.390625 243.027344 256.625 C 240.058594 247.933594 240.304688 238.425781 243.703125 229.855469 C 245.71875 224.777344 248.011719 220.289062 250.03125 216.332031 C 252.363281 211.765625 254.375 207.824219 255.589844 203.882812 C 257.113281 198.953125 256.910156 193.613281 255.019531 188.847656 C 253.652344 185.386719 252.164062 184.335938 248.660156 184.335938 L 215.988281 184.335938 C 212.050781 184.335938 209.808594 187.910156 209.328125 191.449219 C 207.484375 205.046875 211.28125 214.382812 215.308594 224.265625 C 216.265625 226.609375 217.253906 229.039062 218.15625 231.511719 C 221.050781 239.453125 221.230469 248.234375 218.65625 256.246094 C 216.058594 264.324219 210.753906 271.308594 203.71875 275.910156 C 197.503906 279.976562 190.261719 282.125 182.777344 282.125 C 176.179688 282.125 169.675781 280.425781 163.976562 277.210938 C 155.984375 272.703125 149.9375 265.390625 146.949219 256.625 C 143.980469 247.933594 144.222656 238.425781 147.625 229.855469 C 149.640625 224.777344 151.929688 220.289062 153.949219 216.332031 C 156.28125 211.765625 158.292969 207.824219 159.511719 203.882812 C 161.03125 198.953125 160.832031 193.613281 158.9375 188.847656 C 157.570312 185.386719 156.085938 184.335938 152.582031 184.335938 L 119.90625 184.335938 C 115.972656 184.335938 113.726562 187.910156 113.246094 191.449219 C 111.402344 205.046875 115.203125 214.382812 119.230469 224.265625 C 120.183594 226.609375 121.175781 229.039062 122.074219 231.511719 C 124.972656 239.453125 125.148438 248.234375 122.574219 256.246094 C 119.976562 264.324219 114.675781 271.308594 107.636719 275.910156 C 101.421875 279.976562 94.179688 282.125 86.699219 282.125 C 80.097656 282.125 73.597656 280.425781 67.898438 277.210938 C 59.902344 272.703125 53.855469 265.390625 50.867188 256.625 C 47.898438 247.933594 48.140625 238.425781 51.542969 229.855469 C 53.558594 224.777344 55.851562 220.289062 57.871094 216.332031 C 60.203125 211.765625 62.214844 207.824219 63.429688 203.882812 C 64.953125 198.953125 64.75 193.613281 62.859375 188.847656 C 61.492188 185.386719 60.003906 184.335938 56.5 184.335938 L 22.382812 184.335938 L 22.382812 178.125 L 56.5 178.125 C 62.582031 178.125 66.320312 180.726562 68.628906 186.558594 C 71.039062 192.632812 71.300781 199.4375 69.363281 205.714844 C 67.988281 210.167969 65.757812 214.535156 63.398438 219.15625 C 61.347656 223.179688 59.222656 227.339844 57.316406 232.144531 C 51.40625 247.035156 57.265625 264.082031 70.949219 271.800781 C 75.71875 274.492188 81.164062 275.914062 86.699219 275.914062 C 92.972656 275.914062 99.035156 274.117188 104.242188 270.714844 C 116.371094 262.78125 121.308594 247.535156 116.242188 233.640625 C 115.378906 231.273438 114.414062 228.902344 113.480469 226.605469 C 109.324219 216.402344 105.027344 205.855469 107.09375 190.617188 C 107.414062 188.261719 108.171875 186.140625 109.261719 184.335938 C 111.59375 180.5 115.453125 178.125 119.90625 178.125 L 152.582031 178.125 C 158.660156 178.125 162.402344 180.726562 164.710938 186.558594 C 167.121094 192.632812 167.378906 199.4375 165.441406 205.714844 C 164.066406 210.167969 161.839844 214.535156 159.480469 219.15625 C 157.429688 223.179688 155.304688 227.339844 153.394531 232.144531 C 147.484375 247.035156 153.347656 264.082031 167.03125 271.800781 C 171.796875 274.492188 177.242188 275.914062 182.777344 275.914062 C 189.050781 275.914062 195.113281 274.117188 200.320312 270.714844 C 212.453125 262.78125 217.386719 247.535156 212.324219 233.640625 C 211.457031 231.273438 210.492188 228.902344 209.558594 226.605469 C 205.402344 216.402344 201.105469 205.855469 203.171875 190.617188 C 203.492188 188.261719 204.25 186.140625 205.34375 184.335938 C 207.675781 180.5 211.535156 178.125 215.988281 178.125 L 248.660156 178.125 C 254.742188 178.125 258.480469 180.726562 260.792969 186.558594 C 263.199219 192.632812 263.460938 199.4375 261.523438 205.714844 C 260.148438 210.167969 257.917969 214.535156 255.558594 219.15625 C 253.507812 223.179688 251.382812 227.339844 249.472656 232.144531 C 243.566406 247.035156 249.425781 264.082031 263.109375 271.800781 C 267.878906 274.492188 273.324219 275.914062 278.859375 275.914062 C 285.132812 275.914062 291.195312 274.117188 296.402344 270.714844 C 308.535156 262.78125 313.46875 247.535156 308.402344 233.640625 C 307.539062 231.273438 306.574219 228.902344 305.640625 226.605469 C 301.484375 216.402344 297.1875 205.855469 299.253906 190.617188 C 300.253906 183.261719 305.519531 178.125 312.066406 178.125 L 337.171875 178.125 L 337.171875 184.335938 L 312.066406 184.335938 C 308.132812 184.335938 305.886719 187.910156 305.40625 191.449219 " fill-opacity="1" fill-rule="nonzero"/></g><path fill="#fef5f0" d="M 108.992188 251.390625 C 107.632812 258.316406 101.140625 264.246094 95.320312 266.371094 C 79.742188 272.0625 63.40625 260.125 63.4375 243.542969 C 63.46875 227.234375 74.953125 217.824219 78.570312 198.617188 C 83.703125 171.378906 104.90625 128.46875 140.222656 93.800781 C 141.171875 92.863281 142.730469 94.097656 141.976562 95.199219 C 105.890625 147.53125 99.480469 173.539062 99.058594 202.652344 C 98.75 224.070312 112.71875 232.453125 108.992188 251.390625 " fill-opacity="1" fill-rule="nonzero"/><path fill="#fef5f0" d="M 205.074219 251.390625 C 203.710938 258.316406 197.21875 264.246094 191.398438 266.371094 C 175.820312 272.0625 159.488281 260.125 159.519531 243.542969 C 159.546875 227.234375 171.03125 217.824219 174.652344 198.617188 C 179.78125 171.378906 200.988281 128.46875 236.300781 93.800781 C 237.253906 92.863281 238.8125 94.097656 238.054688 95.195312 C 201.96875 147.53125 195.5625 173.539062 195.140625 202.652344 C 194.828125 224.070312 208.796875 232.453125 205.074219 251.390625 " fill-opacity="1" fill-rule="nonzero"/><path fill="#fef5f0" d="M 301.152344 251.390625 C 299.789062 258.316406 293.300781 264.246094 287.476562 266.371094 C 271.902344 272.0625 255.566406 260.125 255.597656 243.542969 C 255.628906 227.234375 267.113281 217.824219 270.730469 198.617188 C 275.863281 171.378906 297.066406 128.46875 332.378906 93.800781 C 333.332031 92.863281 334.890625 94.097656 334.132812 95.199219 C 298.046875 147.53125 291.640625 173.539062 291.21875 202.652344 C 290.910156 224.070312 304.878906 232.453125 301.152344 251.390625 " fill-opacity="1" fill-rule="nonzero"/></svg>