<svg xmlns="http://www.w3.org/2000/svg" xmlns:xlink="http://www.w3.org/1999/xlink"
width="75" zoomAndPan="magnify" viewBox="0 0 375 374.999991"
height="75" preserveAspectRatio="xMidYMid meet"
version="1.0"><defs><g/></defs><rect x="-37.5" width="450" fill="#ffffff" y="-37.499999"
height="449.999989" fill-opacity="1"/><rect x="-37.5" width="450" fill="#e1e1e1" y="-37.499999"
height="449.999989" fill-opacity="1"/><g fill="#000000" fill-opacity="1"><g transform="translate(160.071451, 281.452995)"><g><path d="M -8.890625 -168.171875 C -7.847656 -168.171875 -5.992188 -168.171875 -3.328125 -168.171875 C -0.660156 -168.171875 2.960938 -167.722656 7.546875 -166.828125 C 12.140625 -165.941406 16.398438 -164.644531 20.328125 -162.9375 C 24.253906 -161.238281 28.101562 -158.796875 31.875 -155.609375 C 35.65625 -152.429688 38.878906 -149.472656 41.546875 -146.734375 C 44.210938 -143.992188 46.914062 -140.398438 49.65625 -135.953125 C 52.394531 -131.515625 54.613281 -127.738281 56.3125 -124.625 C 58.019531 -121.519531 59.910156 -117.445312 61.984375 -112.40625 C 64.648438 -106.039062 66.796875 -100.523438 68.421875 -95.859375 C 70.054688 -91.191406 70.945312 -88.632812 71.09375 -88.1875 C 71.238281 -87.75 71.457031 -87.234375 71.75 -86.640625 C 72.195312 -85.453125 72.570312 -84.414062 72.875 -83.53125 C 73.3125 -84.5625 74.34375 -87.300781 75.96875 -91.75 C 77.601562 -96.195312 79.125 -100.195312 80.53125 -103.75 C 81.9375 -107.300781 84.117188 -112.332031 87.078125 -118.84375 C 90.046875 -125.363281 92.75 -130.507812 95.1875 -134.28125 C 97.632812 -138.0625 100.78125 -142.394531 104.625 -147.28125 C 108.476562 -152.175781 112.332031 -155.957031 116.1875 -158.625 C 125.664062 -164.988281 135.738281 -168.171875 146.40625 -168.171875 L 146.40625 -165.953125 C 138.101562 -165.953125 129.617188 -161.582031 120.953125 -152.84375 C 112.296875 -144.101562 104.894531 -133.550781 98.75 -121.1875 C 92.601562 -108.820312 87.566406 -96.007812 83.640625 -82.75 C 79.710938 -69.5 77.75 -58.207031 77.75 -48.875 L 77.75 -16.21875 C 77.75 -10.882812 80.046875 -6.882812 84.640625 -4.21875 C 86.859375 -2.882812 89.300781 -2.21875 91.96875 -2.21875 L 94.640625 -2.21875 L 94.640625 0 L 46.203125 0 L 46.203125 -2.21875 L 49.09375 -2.21875 C 52.800781 -2.21875 56.0625 -3.550781 58.875 -6.21875 C 61.6875 -8.882812 63.164062 -12.144531 63.3125 -16 L 63.3125 -49.09375 C 63.3125 -59.019531 61.238281 -70.644531 57.09375 -83.96875 C 52.945312 -97.300781 47.613281 -110.078125 41.09375 -122.296875 C 34.582031 -134.515625 26.804688 -144.84375 17.765625 -153.28125 C 8.734375 -161.726562 -0.148438 -165.953125 -8.890625 -165.953125 Z M -8.890625 -168.171875 "/></g></g></g><g fill="#000000" fill-opacity="1"><g transform="translate(83.003659, 237.732648)"><g><path d="M 16.21875 -2.21875 C 20.070312 -2.21875 23.367188 -3.585938 26.109375 -6.328125 C 28.847656 -9.066406 30.289062 -12.363281 30.4375 -16.21875 L 30.4375 -140.625 C 30.4375 -144.175781 29.03125 -147.171875 26.21875 -149.609375 C 23.40625 -152.054688 20.070312 -153.28125 16.21875 -153.28125 L 13.546875 -153.28125 L 13.328125 -155.515625 L 58.421875 -155.515625 C 63.015625 -155.515625 68.015625 -155.957031 73.421875 -156.84375 C 78.828125 -157.726562 82.640625 -158.617188 84.859375 -159.515625 L 84.859375 -131.515625 L 82.640625 -131.515625 L 82.640625 -135.515625 C 82.640625 -139.066406 81.414062 -142.101562 78.96875 -144.625 C 76.53125 -147.144531 73.609375 -148.476562 70.203125 -148.625 L 44.875 -148.625 L 44.875 -79.96875 L 87.078125 -79.96875 C 90.046875 -80.125 92.566406 -81.238281 94.640625 -83.3125 C 96.710938 -85.382812 97.75 -87.972656 97.75 -91.078125 L 97.75 -94.1875 L 99.96875 -94.1875 L 99.96875 -59.09375 L 97.75 -59.09375 L 97.75 -62.421875 C 97.75 -65.390625 96.75 -67.910156 94.75 -69.984375 C 92.75 -72.054688 90.269531 -73.164062 87.3125 -73.3125 L 44.875 -73.3125 L 44.875 -6.890625 L 92.1875 -6.890625 C 103.15625 -6.890625 111.523438 -9.332031 117.296875 -14.21875 C 123.078125 -19.101562 127.890625 -26.359375 131.734375 -35.984375 L 133.953125 -35.984375 L 121.078125 0 L 13.328125 0 L 13.328125 -2.21875 Z M 16.21875 -2.21875 "/></g></g></g><path fill="#e1e1e1" d="M 63.410156 170.273438 L 311.5625 170.273438 C 313.046875 170.273438 314.472656 170.863281 315.523438 171.910156 C 316.570312 172.960938 317.160156 174.386719 317.160156 175.871094 L 317.160156 187.066406 C 317.160156 188.550781 316.570312 189.976562 315.523438 191.027344 C 314.472656 192.078125 313.046875 192.667969 311.5625 192.667969 L 63.410156 192.667969 C 60.316406 192.667969 57.8125 190.160156 57.8125 187.066406 L 57.8125 175.871094 C 57.8125 172.777344 60.316406 170.273438 63.410156 170.273438 Z M 63.410156 170.273438 " fill-opacity="1" fill-rule="nonzero"/><g fill="#000000" fill-opacity="1"><g transform="translate(68.748528, 185.666156)"><g><path d="M 7.421875 -8.375 L 2.796875 -8.375 L 2.796875 -5.8125 L 7.203125 -5.8125 L 7.203125 -4.25 L 2.796875 -4.25 L 2.796875 -1.5625 L 7.59375 -1.5625 L 7.46875 0 L 1.015625 0 L 1.015625 -9.953125 L 7.421875 -9.953125 Z M 7.421875 -8.375 "/></g></g></g><g fill="#000000" fill-opacity="1"><g transform="translate(87.323705, 185.666156)"><g><path d="M 4.125 0.125 C 2.957031 0.125 2.046875 -0.132812 1.390625 -0.65625 C 0.734375 -1.175781 0.359375 -1.941406 0.265625 -2.953125 L 1.96875 -3.203125 C 2.144531 -2.015625 2.890625 -1.421875 4.203125 -1.421875 C 4.773438 -1.421875 5.21875 -1.535156 5.53125 -1.765625 C 5.851562 -1.992188 6.015625 -2.3125 6.015625 -2.71875 C 6.015625 -3.09375 5.851562 -3.375 5.53125 -3.5625 C 5.21875 -3.757812 4.710938 -3.941406 4.015625 -4.109375 C 3.359375 -4.265625 2.796875 -4.453125 2.328125 -4.671875 C 1.859375 -4.890625 1.5 -5.1875 1.25 -5.5625 C 1.007812 -5.9375 0.890625 -6.429688 0.890625 -7.046875 C 0.890625 -7.640625 1.039062 -8.164062 1.34375 -8.625 C 1.644531 -9.082031 2.0625 -9.441406 2.59375 -9.703125 C 3.125 -9.960938 3.738281 -10.09375 4.4375 -10.09375 C 5.363281 -10.09375 6.117188 -9.847656 6.703125 -9.359375 C 7.296875 -8.878906 7.644531 -8.210938 7.75 -7.359375 L 6.15625 -7.09375 C 5.957031 -8.0625 5.359375 -8.546875 4.359375 -8.546875 C 3.867188 -8.546875 3.472656 -8.421875 3.171875 -8.171875 C 2.867188 -7.921875 2.71875 -7.585938 2.71875 -7.171875 C 2.71875 -6.765625 2.863281 -6.453125 3.15625 -6.234375 C 3.457031 -6.015625 3.96875 -5.816406 4.6875 -5.640625 C 5.332031 -5.492188 5.890625 -5.320312 6.359375 -5.125 C 6.828125 -4.925781 7.1875 -4.644531 7.4375 -4.28125 C 7.695312 -3.925781 7.828125 -3.441406 7.828125 -2.828125 C 7.828125 -2.253906 7.671875 -1.742188 7.359375 -1.296875 C 7.046875 -0.847656 6.613281 -0.5 6.0625 -0.25 C 5.507812 0 4.863281 0.125 4.125 0.125 Z M 4.125 0.125 "/></g></g></g><g fill="#000000" fill-opacity="1"><g transform="translate(106.192907, 185.666156)"><g><path d="M 8.234375 -9.953125 L 8.015625 -8.359375 L 4.9375 -8.359375 L 4.9375 0 L 3.109375 0 L 3.109375 -8.359375 L -0.078125 -8.359375 L -0.078125 -9.953125 Z M 8.234375 -9.953125 "/></g></g></g><g fill="#000000" fill-opacity="1"><g transform="translate(124.894091, 185.666156)"><g><path d="M 1.015625 0 L 1.015625 -9.953125 L 2.84375 -9.953125 L 2.84375 -5.828125 L 7.546875 -5.828125 L 7.546875 -9.953125 L 9.390625 -9.953125 L 9.390625 0 L 7.546875 0 L 7.546875 -4.234375 L 2.84375 -4.234375 L 2.84375 0 Z M 1.015625 0 "/></g></g></g><g fill="#000000" fill-opacity="1"><g transform="translate(145.947527, 185.666156)"><g><path d="M 7.421875 -8.375 L 2.796875 -8.375 L 2.796875 -5.8125 L 7.203125 -5.8125 L 7.203125 -4.25 L 2.796875 -4.25 L 2.796875 -1.5625 L 7.59375 -1.5625 L 7.46875 0 L 1.015625 0 L 1.015625 -9.953125 L 7.421875 -9.953125 Z M 7.421875 -8.375 "/></g></g></g><g fill="#000000" fill-opacity="1"><g transform="translate(164.522705, 185.666156)"><g><path d="M 8.890625 -1.734375 L 9.3125 -0.328125 C 9.125 -0.179688 8.894531 -0.0703125 8.625 0 C 8.351562 0.0820312 8.066406 0.125 7.765625 0.125 C 6.710938 0.125 5.890625 -0.335938 5.296875 -1.265625 L 3.859375 -3.46875 C 3.703125 -3.707031 3.546875 -3.875 3.390625 -3.96875 C 3.234375 -4.0625 3.0625 -4.109375 2.875 -4.109375 L 2.796875 -4.109375 L 2.796875 0 L 1.015625 0 L 1.015625 -9.953125 L 4.125 -9.953125 C 5.382812 -9.953125 6.335938 -9.6875 6.984375 -9.15625 C 7.628906 -8.632812 7.953125 -7.921875 7.953125 -7.015625 C 7.953125 -6.460938 7.832031 -5.984375 7.59375 -5.578125 C 7.351562 -5.179688 7.019531 -4.863281 6.59375 -4.625 C 6.175781 -4.394531 5.703125 -4.25 5.171875 -4.1875 C 5.453125 -4.039062 5.707031 -3.789062 5.9375 -3.4375 L 6.734375 -2.265625 C 6.929688 -1.972656 7.117188 -1.769531 7.296875 -1.65625 C 7.484375 -1.539062 7.71875 -1.484375 8 -1.484375 C 8.332031 -1.484375 8.628906 -1.566406 8.890625 -1.734375 Z M 4 -8.46875 L 2.796875 -8.46875 L 2.796875 -5.53125 L 3.90625 -5.53125 C 4.675781 -5.53125 5.242188 -5.644531 5.609375 -5.875 C 5.972656 -6.113281 6.15625 -6.492188 6.15625 -7.015625 C 6.15625 -7.984375 5.4375 -8.46875 4 -8.46875 Z M 4 -8.46875 "/></g></g></g><g fill="#000000" fill-opacity="1"><g transform="translate(183.965977, 185.666156)"><g/></g></g><g fill="#000000" fill-opacity="1"><g transform="translate(198.03267, 185.666156)"><g><path d="M 8.515625 -9.953125 L 5.046875 -4.453125 L 5.046875 0 L 3.203125 0 L 3.203125 -4.421875 L -0.359375 -9.953125 L 1.703125 -9.953125 L 4.203125 -6.046875 L 6.609375 -9.953125 Z M 8.515625 -9.953125 "/></g></g></g><g fill="#000000" fill-opacity="1"><g transform="translate(216.915881, 185.666156)"><g><path d="M -0.140625 0 L 4.109375 -9.953125 L 5.640625 -9.953125 L 9.734375 0 L 7.875 0 L 6.984375 -2.265625 L 2.640625 -2.265625 L 1.703125 0 Z M 3.265625 -3.796875 L 6.390625 -3.796875 L 4.84375 -7.703125 Z M 3.265625 -3.796875 "/></g></g></g><g fill="#000000" fill-opacity="1"><g transform="translate(237.213229, 185.666156)"><g><path d="M 4.125 0.125 C 2.957031 0.125 2.046875 -0.132812 1.390625 -0.65625 C 0.734375 -1.175781 0.359375 -1.941406 0.265625 -2.953125 L 1.96875 -3.203125 C 2.144531 -2.015625 2.890625 -1.421875 4.203125 -1.421875 C 4.773438 -1.421875 5.21875 -1.535156 5.53125 -1.765625 C 5.851562 -1.992188 6.015625 -2.3125 6.015625 -2.71875 C 6.015625 -3.09375 5.851562 -3.375 5.53125 -3.5625 C 5.21875 -3.757812 4.710938 -3.941406 4.015625 -4.109375 C 3.359375 -4.265625 2.796875 -4.453125 2.328125 -4.671875 C 1.859375 -4.890625 1.5 -5.1875 1.25 -5.5625 C 1.007812 -5.9375 0.890625 -6.429688 0.890625 -7.046875 C 0.890625 -7.640625 1.039062 -8.164062 1.34375 -8.625 C 1.644531 -9.082031 2.0625 -9.441406 2.59375 -9.703125 C 3.125 -9.960938 3.738281 -10.09375 4.4375 -10.09375 C 5.363281 -10.09375 6.117188 -9.847656 6.703125 -9.359375 C 7.296875 -8.878906 7.644531 -8.210938 7.75 -7.359375 L 6.15625 -7.09375 C 5.957031 -8.0625 5.359375 -8.546875 4.359375 -8.546875 C 3.867188 -8.546875 3.472656 -8.421875 3.171875 -8.171875 C 2.867188 -7.921875 2.71875 -7.585938 2.71875 -7.171875 C 2.71875 -6.765625 2.863281 -6.453125 3.15625 -6.234375 C 3.457031 -6.015625 3.96875 -5.816406 4.6875 -5.640625 C 5.332031 -5.492188 5.890625 -5.320312 6.359375 -5.125 C 6.828125 -4.925781 7.1875 -4.644531 7.4375 -4.28125 C 7.695312 -3.925781 7.828125 -3.441406 7.828125 -2.828125 C 7.828125 -2.253906 7.671875 -1.742188 7.359375 -1.296875 C 7.046875 -0.847656 6.613281 -0.5 6.0625 -0.25 C 5.507812 0 4.863281 0.125 4.125 0.125 Z M 4.125 0.125 "/></g></g></g><g fill="#000000" fill-opacity="1"><g transform="translate(256.082423, 185.666156)"><g><path d="M 1.015625 0 L 1.015625 -9.953125 L 2.84375 -9.953125 L 2.84375 -5.828125 L 7.546875 -5.828125 L 7.546875 -9.953125 L 9.390625 -9.953125 L 9.390625 0 L 7.546875 0 L 7.546875 -4.234375 L 2.84375 -4.234375 L 2.84375 0 Z M 1.015625 0 "/></g></g></g><g fill="#000000" fill-opacity="1"><g transform="translate(277.135851, 185.666156)"><g><path d="M -0.140625 0 L 4.109375 -9.953125 L 5.640625 -9.953125 L 9.734375 0 L 7.875 0 L 6.984375 -2.265625 L 2.640625 -2.265625 L 1.703125 0 Z M 3.265625 -3.796875 L 6.390625 -3.796875 L 4.84375 -7.703125 Z M 3.265625 -3.796875 "/></g></g></g><g fill="#000000" fill-opacity="1"><g transform="translate(297.433215, 185.666156)"><g><path d="M 8.890625 -1.734375 L 9.3125 -0.328125 C 9.125 -0.179688 8.894531 -0.0703125 8.625 0 C 8.351562 0.0820312 8.066406 0.125 7.765625 0.125 C 6.710938 0.125 5.890625 -0.335938 5.296875 -1.265625 L 3.859375 -3.46875 C 3.703125 -3.707031 3.546875 -3.875 3.390625 -3.96875 C 3.234375 -4.0625 3.0625 -4.109375 2.875 -4.109375 L 2.796875 -4.109375 L 2.796875 0 L 1.015625 0 L 1.015625 -9.953125 L 4.125 -9.953125 C 5.382812 -9.953125 6.335938 -9.6875 6.984375 -9.15625 C 7.628906 -8.632812 7.953125 -7.921875 7.953125 -7.015625 C 7.953125 -6.460938 7.832031 -5.984375 7.59375 -5.578125 C 7.351562 -5.179688 7.019531 -4.863281 6.59375 -4.625 C 6.175781 -4.394531 5.703125 -4.25 5.171875 -4.1875 C 5.453125 -4.039062 5.707031 -3.789062 5.9375 -3.4375 L 6.734375 -2.265625 C 6.929688 -1.972656 7.117188 -1.769531 7.296875 -1.65625 C 7.484375 -1.539062 7.71875 -1.484375 8 -1.484375 C 8.332031 -1.484375 8.628906 -1.566406 8.890625 -1.734375 Z M 4 -8.46875 L 2.796875 -8.46875 L 2.796875 -5.53125 L 3.90625 -5.53125 C 4.675781 -5.53125 5.242188 -5.644531 5.609375 -5.875 C 5.972656 -6.113281 6.15625 -6.492188 6.15625 -7.015625 C 6.15625 -7.984375 5.4375 -8.46875 4 -8.46875 Z M 4 -8.46875 "/></g></g></g></svg>