<svg xmlns="http://www.w3.org/2000/svg" xmlns:xlink="http://www.w3.org/1999/xlink" width="500" zoomAndPan="magnify" viewBox="0 0 375 374.999991" height="500" preserveAspectRatio="xMidYMid meet" version="1.0"><defs><clipPath id="91a0918e60"><path d="M 120.84375 38.25 L 254.34375 38.25 L 254.34375 345 L 120.84375 345 Z M 120.84375 38.25 " clip-rule="nonzero"/></clipPath></defs><path fill="#8fbc8f" d="M 375 187.5 C 375 190.570312 374.925781 193.636719 374.773438 196.699219 C 374.625 199.765625 374.398438 202.824219 374.097656 205.878906 C 373.796875 208.933594 373.421875 211.976562 372.96875 215.011719 C 372.519531 218.046875 371.996094 221.070312 371.398438 224.078125 C 370.796875 227.089844 370.125 230.082031 369.378906 233.058594 C 368.636719 236.035156 367.816406 238.992188 366.925781 241.929688 C 366.035156 244.863281 365.074219 247.777344 364.039062 250.667969 C 363.003906 253.554688 361.902344 256.417969 360.726562 259.253906 C 359.554688 262.089844 358.308594 264.890625 356.996094 267.667969 C 355.6875 270.441406 354.304688 273.179688 352.859375 275.886719 C 351.414062 278.59375 349.902344 281.261719 348.324219 283.894531 C 346.746094 286.527344 345.105469 289.117188 343.402344 291.667969 C 341.695312 294.222656 339.929688 296.730469 338.101562 299.195312 C 336.273438 301.660156 334.386719 304.078125 332.4375 306.449219 C 330.492188 308.820312 328.488281 311.144531 326.429688 313.417969 C 324.367188 315.691406 322.253906 317.914062 320.082031 320.082031 C 317.914062 322.253906 315.691406 324.367188 313.417969 326.429688 C 311.144531 328.488281 308.820312 330.492188 306.449219 332.4375 C 304.078125 334.386719 301.660156 336.273438 299.195312 338.101562 C 296.730469 339.929688 294.222656 341.695312 291.667969 343.402344 C 289.117188 345.105469 286.527344 346.746094 283.894531 348.324219 C 281.261719 349.902344 278.59375 351.414062 275.886719 352.859375 C 273.179688 354.308594 270.441406 355.6875 267.667969 356.996094 C 264.890625 358.308594 262.089844 359.554688 259.253906 360.726562 C 256.417969 361.902344 253.554688 363.003906 250.667969 364.039062 C 247.777344 365.074219 244.863281 366.035156 241.929688 366.925781 C 238.992188 367.816406 236.035156 368.636719 233.058594 369.378906 C 230.082031 370.125 227.089844 370.796875 224.078125 371.398438 C 221.070312 371.996094 218.046875 372.519531 215.011719 372.96875 C 211.976562 373.421875 208.933594 373.796875 205.878906 374.097656 C 202.824219 374.398438 199.765625 374.625 196.699219 374.773438 C 193.636719 374.925781 190.570312 375 187.5 375 C 184.429688 375 181.363281 374.925781 178.300781 374.773438 C 175.234375 374.625 172.175781 374.398438 169.121094 374.097656 C 166.066406 373.796875 163.023438 373.421875 159.988281 372.96875 C 156.953125 372.519531 153.929688 371.996094 150.921875 371.398438 C 147.910156 370.796875 144.917969 370.125 141.941406 369.378906 C 138.964844 368.636719 136.007812 367.816406 133.070312 366.925781 C 130.136719 366.035156 127.222656 365.074219 124.332031 364.039062 C 121.445312 363.003906 118.582031 361.902344 115.746094 360.726562 C 112.910156 359.554688 110.105469 358.308594 107.332031 356.996094 C 104.558594 355.6875 101.820312 354.308594 99.113281 352.859375 C 96.40625 351.414062 93.738281 349.902344 91.105469 348.324219 C 88.472656 346.746094 85.882812 345.105469 83.332031 343.402344 C 80.777344 341.695312 78.269531 339.929688 75.804688 338.101562 C 73.339844 336.273438 70.921875 334.386719 68.550781 332.4375 C 66.179688 330.492188 63.855469 328.488281 61.582031 326.429688 C 59.308594 324.367188 57.085938 322.253906 54.917969 320.082031 C 52.746094 317.914062 50.632812 315.691406 48.570312 313.417969 C 46.511719 311.144531 44.507812 308.820312 42.558594 306.449219 C 40.613281 304.078125 38.726562 301.660156 36.898438 299.195312 C 35.070312 296.730469 33.304688 294.222656 31.597656 291.667969 C 29.894531 289.117188 28.253906 286.527344 26.675781 283.894531 C 25.097656 281.261719 23.585938 278.59375 22.140625 275.886719 C 20.691406 273.179688 19.3125 270.441406 18.003906 267.667969 C 16.691406 264.890625 15.445312 262.089844 14.273438 259.253906 C 13.097656 256.417969 11.996094 253.554688 10.960938 250.667969 C 9.925781 247.777344 8.964844 244.863281 8.074219 241.929688 C 7.183594 238.992188 6.363281 236.035156 5.617188 233.058594 C 4.875 230.082031 4.203125 227.089844 3.601562 224.078125 C 3.003906 221.070312 2.480469 218.046875 2.03125 215.011719 C 1.578125 211.976562 1.203125 208.933594 0.902344 205.878906 C 0.601562 202.824219 0.375 199.765625 0.226562 196.699219 C 0.0742188 193.636719 0 190.570312 0 187.5 C 0 184.429688 0.0742188 181.363281 0.226562 178.300781 C 0.375 175.234375 0.601562 172.175781 0.902344 169.121094 C 1.203125 166.066406 1.578125 163.023438 2.03125 159.988281 C 2.480469 156.953125 3.003906 153.929688 3.601562 150.921875 C 4.203125 147.910156 4.875 144.917969 5.617188 141.941406 C 6.363281 138.964844 7.183594 136.007812 8.074219 133.070312 C 8.964844 130.136719 9.925781 127.222656 10.960938 124.332031 C 11.996094 121.445312 13.097656 118.582031 14.273438 115.746094 C 15.445312 112.910156 16.691406 110.105469 18.003906 107.332031 C 19.3125 104.558594 20.691406 101.820312 22.140625 99.113281 C 23.585938 96.40625 25.097656 93.738281 26.675781 91.105469 C 28.253906 88.472656 29.894531 85.882812 31.597656 83.332031 C 33.304688 80.777344 35.070312 78.269531 36.898438 75.804688 C 38.726562 73.339844 40.613281 70.921875 42.558594 68.550781 C 44.507812 66.179688 46.511719 63.855469 48.570312 61.582031 C 50.632812 59.308594 52.746094 57.085938 54.917969 54.917969 C 57.085938 52.746094 59.308594 50.632812 61.582031 48.570312 C 63.855469 46.511719 66.179688 44.507812 68.550781 42.558594 C 70.921875 40.613281 73.339844 38.726562 75.804688 36.898438 C 78.269531 35.070312 80.777344 33.304688 83.332031 31.597656 C 85.882812 29.894531 88.472656 28.253906 91.105469 26.675781 C 93.738281 25.097656 96.40625 23.585938 99.113281 22.140625 C 101.820312 20.691406 104.558594 19.3125 107.332031 18.003906 C 110.105469 16.691406 112.910156 15.445312 115.746094 14.273438 C 118.582031 13.097656 121.445312 11.996094 124.332031 10.960938 C 127.222656 9.925781 130.136719 8.964844 133.070312 8.074219 C 136.007812 7.183594 138.964844 6.363281 141.941406 5.617188 C 144.917969 4.875 147.910156 4.203125 150.921875 3.601562 C 153.929688 3.003906 156.953125 2.480469 159.988281 2.03125 C 163.023438 1.578125 166.066406 1.203125 169.121094 0.902344 C 172.175781 0.601562 175.234375 0.375 178.300781 0.226562 C 181.363281 0.0742188 184.429688 0 187.5 0 C 190.570312 0 193.636719 0.0742188 196.699219 0.226562 C 199.765625 0.375 202.824219 0.601562 205.878906 0.902344 C 208.933594 1.203125 211.976562 1.578125 215.011719 2.03125 C 218.046875 2.480469 221.070312 3.003906 224.078125 3.601562 C 227.089844 4.203125 230.082031 4.875 233.058594 5.617188 C 236.035156 6.363281 238.992188 7.183594 241.929688 8.074219 C 244.863281 8.964844 247.777344 9.925781 250.667969 10.960938 C 253.554688 11.996094 256.417969 13.097656 259.253906 14.273438 C 262.089844 15.445312 264.890625 16.691406 267.667969 18.003906 C 270.441406 19.3125 273.179688 20.691406 275.886719 22.140625 C 278.59375 23.585938 281.261719 25.097656 283.894531 26.675781 C 286.527344 28.253906 289.117188 29.894531 291.667969 31.597656 C 294.222656 33.304688 296.730469 35.070312 299.195312 36.898438 C 301.660156 38.726562 304.078125 40.613281 306.449219 42.558594 C 308.820312 44.507812 311.144531 46.511719 313.417969 48.570312 C 315.691406 50.632812 317.914062 52.746094 320.082031 54.917969 C 322.253906 57.085938 324.367188 59.308594 326.429688 61.582031 C 328.488281 63.855469 330.492188 66.179688 332.4375 68.550781 C 334.386719 70.921875 336.273438 73.339844 338.101562 75.804688 C 339.929688 78.269531 341.695312 80.777344 343.402344 83.332031 C 345.105469 85.882812 346.746094 88.472656 348.324219 91.105469 C 349.902344 93.738281 351.414062 96.40625 352.859375 99.113281 C 354.304688 101.820312 355.6875 104.558594 356.996094 107.332031 C 358.308594 110.105469 359.554688 112.910156 360.726562 115.746094 C 361.902344 118.582031 363.003906 121.445312 364.039062 124.332031 C 365.074219 127.222656 366.035156 130.136719 366.925781 133.070312 C 367.816406 136.007812 368.636719 138.964844 369.378906 141.941406 C 370.125 144.917969 370.796875 147.910156 371.398438 150.921875 C 371.996094 153.929688 372.519531 156.953125 372.96875 159.988281 C 373.421875 163.023438 373.796875 166.066406 374.097656 169.121094 C 374.398438 172.175781 374.625 175.234375 374.773438 178.300781 C 374.925781 181.363281 375 184.429688 375 187.5 Z M 375 187.5 " fill-opacity="1" fill-rule="nonzero"/><g clip-path="url(#91a0918e60)"><path fill="#fef5f0" d="M 140.859375 38.25 C 140.207031 38.25 139.554688 38.292969 138.902344 38.378906 C 138.25 38.464844 137.605469 38.589844 136.960938 38.761719 C 136.320312 38.933594 135.6875 39.144531 135.058594 39.398438 C 134.433594 39.652344 133.816406 39.945312 133.210938 40.277344 C 132.609375 40.613281 132.015625 40.984375 131.441406 41.398438 C 130.863281 41.808594 130.300781 42.257812 129.757812 42.742188 C 129.214844 43.226562 128.6875 43.746094 128.183594 44.300781 C 127.675781 44.851562 127.191406 45.4375 126.730469 46.054688 C 126.265625 46.671875 125.828125 47.316406 125.410156 47.992188 C 124.996094 48.667969 124.605469 49.367188 124.242188 50.09375 C 123.878906 50.820312 123.542969 51.566406 123.234375 52.335938 C 122.925781 53.105469 122.648438 53.894531 122.394531 54.699219 C 122.144531 55.507812 121.925781 56.328125 121.734375 57.164062 C 121.546875 57.996094 121.386719 58.84375 121.257812 59.699219 C 121.132812 60.554688 121.035156 61.417969 120.972656 62.285156 C 120.90625 63.15625 120.875 64.027344 120.875 64.898438 C 120.875 65.769531 120.90625 66.640625 120.972656 67.511719 C 121.035156 68.378906 121.132812 69.242188 121.257812 70.097656 C 121.386719 70.953125 121.546875 71.800781 121.734375 72.632812 C 121.925781 73.46875 122.144531 74.289062 122.394531 75.097656 C 122.648438 75.902344 122.925781 76.691406 123.234375 77.460938 C 123.542969 78.230469 123.878906 78.976562 124.242188 79.703125 C 124.605469 80.429688 124.996094 81.128906 125.410156 81.804688 C 125.828125 82.480469 126.265625 83.125 126.730469 83.742188 C 127.191406 84.359375 127.675781 84.945312 128.183594 85.496094 C 128.6875 86.050781 129.214844 86.570312 129.757812 87.054688 C 130.300781 87.539062 130.863281 87.988281 131.441406 88.398438 C 132.015625 88.8125 132.609375 89.183594 133.210938 89.519531 C 133.816406 89.851562 134.433594 90.144531 135.058594 90.398438 C 135.6875 90.652344 136.320312 90.863281 136.960938 91.035156 C 137.605469 91.207031 138.25 91.332031 138.902344 91.417969 C 139.554688 91.503906 140.207031 91.546875 140.859375 91.546875 C 141.515625 91.546875 142.167969 91.503906 142.820312 91.417969 C 143.472656 91.332031 144.117188 91.207031 144.761719 91.035156 C 145.402344 90.863281 146.035156 90.652344 146.664062 90.398438 C 147.289062 90.144531 147.90625 89.851562 148.507812 89.519531 C 149.113281 89.183594 149.707031 88.8125 150.28125 88.398438 C 150.859375 87.988281 151.421875 87.539062 151.964844 87.054688 C 152.507812 86.570312 153.035156 86.050781 153.539062 85.496094 C 154.046875 84.945312 154.53125 84.359375 154.992188 83.742188 C 155.457031 83.125 155.894531 82.480469 156.3125 81.804688 C 156.726562 81.128906 157.117188 80.429688 157.480469 79.703125 C 157.84375 78.976562 158.179688 78.230469 158.488281 77.460938 C 158.796875 76.691406 159.074219 75.902344 159.324219 75.097656 C 159.578125 74.289062 159.796875 73.46875 159.988281 72.632812 C 160.175781 71.800781 160.335938 70.953125 160.464844 70.097656 C 160.589844 69.242188 160.6875 68.378906 160.75 67.511719 C 160.816406 66.640625 160.847656 65.769531 160.847656 64.898438 C 160.847656 64.027344 160.816406 63.15625 160.75 62.285156 C 160.6875 61.417969 160.589844 60.554688 160.464844 59.699219 C 160.335938 58.84375 160.175781 57.996094 159.988281 57.164062 C 159.796875 56.328125 159.578125 55.507812 159.324219 54.699219 C 159.074219 53.894531 158.796875 53.105469 158.488281 52.335938 C 158.179688 51.566406 157.84375 50.820312 157.480469 50.09375 C 157.117188 49.367188 156.726562 48.667969 156.3125 47.992188 C 155.894531 47.316406 155.457031 46.671875 154.992188 46.054688 C 154.53125 45.4375 154.046875 44.851562 153.539062 44.300781 C 153.035156 43.746094 152.507812 43.226562 151.964844 42.742188 C 151.421875 42.257812 150.859375 41.808594 150.28125 41.398438 C 149.707031 40.984375 149.113281 40.613281 148.507812 40.277344 C 147.90625 39.945312 147.289062 39.652344 146.664062 39.398438 C 146.035156 39.144531 145.402344 38.933594 144.761719 38.761719 C 144.117188 38.589844 143.472656 38.464844 142.820312 38.378906 C 142.167969 38.292969 141.515625 38.25 140.859375 38.25 Z M 184.085938 47.28125 C 183.210938 47.28125 182.34375 47.394531 181.484375 47.621094 C 180.628906 47.847656 179.792969 48.1875 178.984375 48.632812 C 178.175781 49.082031 177.410156 49.628906 176.679688 50.277344 C 175.953125 50.925781 175.28125 51.660156 174.660156 52.488281 C 174.042969 53.3125 173.492188 54.210938 173.003906 55.179688 C 172.519531 56.152344 172.109375 57.175781 171.773438 58.253906 C 171.4375 59.332031 171.1875 60.441406 171.015625 61.585938 C 170.847656 62.730469 170.761719 63.886719 170.761719 65.054688 C 170.761719 66.21875 170.847656 67.375 171.019531 68.519531 C 171.191406 69.660156 171.445312 70.769531 171.78125 71.847656 C 172.113281 72.925781 172.523438 73.945312 173.011719 74.914062 C 173.496094 75.886719 174.050781 76.78125 174.667969 77.605469 C 175.285156 78.429688 175.960938 79.164062 176.6875 79.8125 C 177.414062 80.460938 178.183594 81.007812 178.988281 81.453125 C 179.796875 81.898438 180.628906 82.234375 181.488281 82.460938 C 182.347656 82.6875 183.210938 82.804688 184.085938 82.804688 C 184.960938 82.804688 185.828125 82.6875 186.683594 82.460938 C 187.542969 82.234375 188.375 81.898438 189.183594 81.453125 C 189.992188 81.007812 190.757812 80.460938 191.484375 79.8125 C 192.214844 79.164062 192.886719 78.429688 193.503906 77.605469 C 194.125 76.78125 194.675781 75.886719 195.160156 74.914062 C 195.648438 73.945312 196.058594 72.925781 196.394531 71.847656 C 196.730469 70.769531 196.980469 69.660156 197.152344 68.519531 C 197.324219 67.375 197.410156 66.21875 197.410156 65.054688 C 197.410156 63.886719 197.328125 62.730469 197.15625 61.585938 C 196.988281 60.441406 196.734375 59.332031 196.398438 58.253906 C 196.066406 57.175781 195.65625 56.152344 195.167969 55.179688 C 194.683594 54.210938 194.128906 53.3125 193.511719 52.488281 C 192.894531 51.660156 192.21875 50.925781 191.492188 50.277344 C 190.765625 49.628906 189.996094 49.082031 189.1875 48.632812 C 188.378906 48.1875 187.546875 47.847656 186.6875 47.621094 C 185.828125 47.394531 184.960938 47.28125 184.085938 47.28125 Z M 215.132812 61.125 C 214.378906 61.125 213.632812 61.226562 212.894531 61.425781 C 212.15625 61.621094 211.4375 61.914062 210.742188 62.300781 C 210.042969 62.6875 209.382812 63.160156 208.757812 63.71875 C 208.132812 64.277344 207.550781 64.914062 207.019531 65.625 C 206.484375 66.335938 206.011719 67.109375 205.59375 67.945312 C 205.171875 68.78125 204.820312 69.664062 204.53125 70.59375 C 204.242188 71.523438 204.023438 72.480469 203.878906 73.464844 C 203.730469 74.453125 203.65625 75.449219 203.65625 76.453125 C 203.65625 77.457031 203.730469 78.453125 203.878906 79.441406 C 204.023438 80.425781 204.242188 81.382812 204.53125 82.3125 C 204.820312 83.242188 205.171875 84.125 205.59375 84.960938 C 206.011719 85.796875 206.484375 86.570312 207.019531 87.28125 C 207.550781 87.992188 208.132812 88.628906 208.757812 89.1875 C 209.382812 89.746094 210.042969 90.21875 210.742188 90.605469 C 211.4375 90.992188 212.15625 91.285156 212.894531 91.480469 C 213.632812 91.679688 214.378906 91.777344 215.132812 91.78125 C 215.886719 91.78125 216.636719 91.683594 217.375 91.488281 C 218.117188 91.292969 218.835938 91 219.535156 90.617188 C 220.230469 90.230469 220.894531 89.757812 221.519531 89.199219 C 222.148438 88.640625 222.730469 88.003906 223.265625 87.292969 C 223.796875 86.582031 224.273438 85.808594 224.695312 84.972656 C 225.113281 84.132812 225.46875 83.25 225.757812 82.320312 C 226.046875 81.390625 226.265625 80.433594 226.414062 79.445312 C 226.5625 78.457031 226.636719 77.460938 226.636719 76.453125 C 226.636719 75.445312 226.5625 74.449219 226.414062 73.460938 C 226.265625 72.472656 226.046875 71.515625 225.757812 70.585938 C 225.46875 69.65625 225.113281 68.773438 224.695312 67.933594 C 224.273438 67.097656 223.796875 66.324219 223.265625 65.613281 C 222.730469 64.902344 222.148438 64.265625 221.519531 63.707031 C 220.894531 63.148438 220.230469 62.675781 219.535156 62.289062 C 218.835938 61.90625 218.117188 61.613281 217.375 61.417969 C 216.636719 61.222656 215.886719 61.125 215.132812 61.125 Z M 236.210938 85.953125 C 235.679688 85.953125 235.152344 86.023438 234.628906 86.164062 C 234.105469 86.304688 233.597656 86.511719 233.105469 86.785156 C 232.613281 87.058594 232.144531 87.394531 231.703125 87.789062 C 231.257812 88.1875 230.847656 88.636719 230.472656 89.140625 C 230.09375 89.644531 229.757812 90.191406 229.460938 90.78125 C 229.167969 91.375 228.917969 92 228.710938 92.65625 C 228.507812 93.3125 228.355469 93.992188 228.25 94.691406 C 228.144531 95.386719 228.09375 96.09375 228.09375 96.804688 C 228.09375 97.515625 228.144531 98.222656 228.246094 98.921875 C 228.351562 99.621094 228.503906 100.300781 228.707031 100.957031 C 228.910156 101.617188 229.160156 102.242188 229.457031 102.835938 C 229.75 103.429688 230.089844 103.980469 230.464844 104.484375 C 230.84375 104.988281 231.253906 105.441406 231.695312 105.835938 C 232.140625 106.234375 232.605469 106.570312 233.101562 106.84375 C 233.59375 107.121094 234.101562 107.328125 234.625 107.46875 C 235.148438 107.609375 235.679688 107.679688 236.210938 107.683594 C 236.746094 107.683594 237.277344 107.613281 237.804688 107.472656 C 238.328125 107.335938 238.839844 107.128906 239.332031 106.855469 C 239.828125 106.582031 240.296875 106.246094 240.742188 105.851562 C 241.1875 105.453125 241.597656 105 241.976562 104.496094 C 242.355469 103.992188 242.691406 103.441406 242.988281 102.847656 C 243.285156 102.253906 243.539062 101.625 243.742188 100.964844 C 243.945312 100.304688 244.101562 99.625 244.203125 98.925781 C 244.308594 98.226562 244.359375 97.519531 244.359375 96.804688 C 244.359375 96.089844 244.304688 95.382812 244.199219 94.683594 C 244.097656 93.984375 243.941406 93.308594 243.734375 92.648438 C 243.53125 91.992188 243.28125 91.363281 242.984375 90.773438 C 242.6875 90.179688 242.347656 89.632812 241.96875 89.128906 C 241.59375 88.625 241.179688 88.175781 240.734375 87.777344 C 240.292969 87.382812 239.820312 87.046875 239.328125 86.777344 C 238.835938 86.503906 238.324219 86.296875 237.800781 86.160156 C 237.277344 86.019531 236.746094 85.953125 236.210938 85.953125 Z M 173.078125 104.871094 C 142.578125 104.871094 120.875 127.933594 120.875 158.167969 C 120.875 196.636719 160.847656 195.742188 160.847656 224.789062 C 160.847656 246.164062 143.898438 261.640625 137.113281 282.015625 C 136.625 283.347656 136.203125 284.703125 135.839844 286.074219 C 135.65625 286.804688 135.417969 287.515625 135.265625 288.261719 C 134.5625 291.492188 134.207031 294.765625 134.199219 298.070312 C 134.199219 299.597656 134.273438 301.125 134.421875 302.644531 C 134.574219 304.164062 134.796875 305.671875 135.09375 307.171875 C 135.394531 308.667969 135.761719 310.148438 136.207031 311.609375 C 136.648438 313.070312 137.164062 314.507812 137.75 315.917969 C 138.332031 317.328125 138.984375 318.707031 139.707031 320.054688 C 140.425781 321.402344 141.210938 322.710938 142.058594 323.980469 C 142.90625 325.25 143.816406 326.476562 144.785156 327.65625 C 145.753906 328.835938 146.777344 329.96875 147.859375 331.046875 C 148.9375 332.128906 150.066406 333.152344 151.25 334.121094 C 152.429688 335.089844 153.65625 336 154.925781 336.847656 C 156.195312 337.695312 157.503906 338.480469 158.851562 339.199219 C 160.195312 339.921875 161.578125 340.574219 162.988281 341.15625 C 164.398438 341.742188 165.835938 342.253906 167.296875 342.699219 C 168.757812 343.140625 170.238281 343.511719 171.734375 343.8125 C 173.234375 344.109375 174.742188 344.332031 176.261719 344.484375 C 177.78125 344.632812 179.304688 344.707031 180.832031 344.707031 C 182.359375 344.707031 183.882812 344.632812 185.40625 344.484375 C 186.925781 344.332031 188.433594 344.109375 189.933594 343.8125 C 191.429688 343.511719 192.910156 343.140625 194.371094 342.699219 C 195.832031 342.253906 197.269531 341.742188 198.679688 341.15625 C 200.089844 340.574219 201.46875 339.921875 202.816406 339.199219 C 204.164062 338.480469 205.472656 337.695312 206.742188 336.847656 C 208.011719 336 209.238281 335.089844 210.417969 334.121094 C 211.597656 333.152344 212.730469 332.128906 213.808594 331.046875 C 214.890625 329.96875 215.914062 328.835938 216.882812 327.65625 C 217.851562 326.476562 218.761719 325.25 219.609375 323.980469 C 220.457031 322.710938 221.242188 321.402344 221.960938 320.054688 C 222.683594 318.707031 223.335938 317.328125 223.917969 315.917969 C 224.503906 314.507812 225.015625 313.070312 225.460938 311.609375 C 225.902344 310.148438 226.273438 308.667969 226.574219 307.171875 C 226.871094 305.671875 227.09375 304.164062 227.242188 302.644531 C 227.394531 301.125 227.46875 299.597656 227.46875 298.070312 C 227.46875 245.972656 254.089844 224.789062 254.089844 184.816406 C 254.089844 136.6875 209.894531 104.871094 173.078125 104.871094 Z M 247.453125 113.746094 C 247.019531 113.746094 246.585938 113.800781 246.15625 113.914062 C 245.726562 114.03125 245.3125 114.199219 244.90625 114.421875 C 244.503906 114.644531 244.121094 114.917969 243.757812 115.242188 C 243.394531 115.5625 243.058594 115.933594 242.746094 116.34375 C 242.4375 116.753906 242.160156 117.203125 241.917969 117.6875 C 241.675781 118.171875 241.46875 118.683594 241.300781 119.222656 C 241.136719 119.761719 241.007812 120.316406 240.921875 120.886719 C 240.835938 121.460938 240.792969 122.035156 240.792969 122.621094 C 240.792969 123.203125 240.835938 123.78125 240.917969 124.355469 C 241.003906 124.929688 241.128906 125.484375 241.296875 126.023438 C 241.464844 126.5625 241.667969 127.078125 241.910156 127.5625 C 242.15625 128.050781 242.429688 128.5 242.742188 128.910156 C 243.050781 129.324219 243.386719 129.695312 243.75 130.019531 C 244.113281 130.34375 244.5 130.617188 244.902344 130.839844 C 245.308594 131.066406 245.722656 131.234375 246.152344 131.347656 C 246.582031 131.460938 247.015625 131.519531 247.453125 131.519531 C 247.894531 131.519531 248.328125 131.460938 248.753906 131.347656 C 249.183594 131.234375 249.601562 131.066406 250.007812 130.839844 C 250.410156 130.617188 250.796875 130.34375 251.160156 130.019531 C 251.523438 129.695312 251.859375 129.324219 252.167969 128.910156 C 252.476562 128.5 252.753906 128.050781 252.996094 127.5625 C 253.242188 127.078125 253.445312 126.5625 253.613281 126.023438 C 253.78125 125.484375 253.90625 124.929688 253.992188 124.355469 C 254.074219 123.78125 254.117188 123.203125 254.117188 122.621094 C 254.117188 122.035156 254.074219 121.460938 253.988281 120.886719 C 253.902344 120.316406 253.773438 119.761719 253.605469 119.222656 C 253.4375 118.683594 253.234375 118.171875 252.992188 117.6875 C 252.746094 117.203125 252.472656 116.753906 252.164062 116.34375 C 251.851562 115.933594 251.515625 115.5625 251.152344 115.242188 C 250.789062 114.917969 250.40625 114.644531 250.003906 114.421875 C 249.597656 114.199219 249.183594 114.03125 248.753906 113.914062 C 248.324219 113.800781 247.890625 113.746094 247.453125 113.746094 Z M 247.453125 113.746094 " fill-opacity="1" fill-rule="nonzero"/></g></svg>